
        <svg xmlns="http://www.w3.org/2000/svg" xmlns:xlink="http://www.w3.org/1999/xlink" version="1.1" width="3233.463035019455" 
        height="653.6964980544747" viewBox="0 0 3233.463035019455 653.6964980544747">
			
			<g transform="scale(11.673151750972762) translate(10, 10)">
				<defs id="SvgjsDefs1819"></defs><g id="SvgjsG1820" featureKey="symbolFeature-0" transform="matrix(0.4071373140350184,0,0,0.4071373140350184,-1.806982258011911,-2.3822477182721666)" fill="#e11d48"><g xmlns="http://www.w3.org/2000/svg"><g><g><g><path d="M51.5,85.2c-0.4-0.5-0.8-0.2-0.8-0.5c-2.4,0.6-6.9-1-8.8-0.8c0.4-0.6-0.6-0.5-0.6-0.9c-0.4,0.6-0.8,0-1.4,0.2      c-0.6-1.5-3-0.4-3.3-2.3c-1.4,0-1.9-0.8-3.3-1.6c0.1-0.1,0.2-0.1,0.3-0.2c-0.7-0.1-0.7-0.5-1.3-0.5l0.2-0.4      c-1.1-0.2-1.5-1.9-3.1-2.5c-0.5-0.1-1.6-1.8-2.2-2.2c-0.3-0.2-0.8-0.2-0.1-0.3c-0.1-0.1-0.1-0.3,0-0.4c-0.7-0.2-0.8-0.8-1.7-1.1      c-0.1-0.3,0.2-0.5,0-0.7c-0.2-0.1-0.5,0.1-0.7,0c-0.1,1.8,1.9,2,2.5,3.5c-0.2-0.2-0.5-0.8-0.7-0.4c-0.1,0.3,0.8,1.4,0.8,0.8      c-0.3,0.2-0.4-0.3-0.2-0.4c0.3,0.5,0.9,0.4,0.9,0.8c-0.3,0.3-0.7-0.3-0.6,0.2c0.9,0.5,0.8,1,1.3,1.7c-0.4-0.5-0.5,0.4-0.9,0      c-0.1-1.5-1.8-1.2-1.8-2.7c-0.2-0.5-0.4-0.1-0.7-0.3c0.4-0.4-1.2-1.8-1.2-1.3c-0.5-0.6-0.2-0.8-0.3-1.2      c-0.4-0.1-0.1,0.4-0.4,0.1c0.4-0.7-0.5-1.6-1.1-2.3l0.4-0.2c-0.7-0.4-0.8-1.2-1.3-2.1c-0.6,0.9,1.2,2.9,0.9,3.3      c0,0.1,0.7,0.9,0.9,1.3c0.8,1.4,1.4,3.1,2.5,3.9c-0.2-0.1-0.1-0.7,0.2-0.4c0,0.3-0.2,0.6-0.2,0.9c0.6,0.6,1.1,1.1,1.7,1.7      c-1.3-0.8-2.6-1.6-3.5-2.8c0.5-0.1,1,0.8,1.4,0.7c-1-0.8-0.7-1.1-1.1-2.1c-0.4-0.3,0.1,0.4-0.3,0.5c-1.3-1.2-2.3-1.9-2.9-3      c0.1-0.1,0.2-0.2,0.2-0.4c-0.1-0.1-0.1-0.1-0.2-0.2c0.6,0.6,0.8,1.1,1.5,1.2c-0.3-0.3,0-0.4-0.4-0.7c-0.2-0.4-0.5,0.2-0.7-0.1      c0.2-0.3,0-0.7,0-1c-0.2,0-0.4,0-0.5-0.3c-0.2-0.1-0.3,0-0.4,0.2c-0.1-0.1-0.1-0.3-0.2-0.4c0,0,0-0.1,0-0.1      c-0.1-0.1-0.2-0.3-0.3-0.4c-0.8-2.1-1.3-4.9-2.4-6.7c0.3-1.2-0.2-3.6-0.5-4.2c0.3-0.5,0.1-2.8-0.1-3.2c-0.5,0.2,0.1,1.3-0.4,1.6      c-0.5-2.2,0.3-4.7,0.1-6.7c0.2,0,0.4,0,0.4-0.1c-0.3-0.3,0.2-0.9,0.1-1.6c0.4-0.9-0.9,1.3-0.9,2.2c-0.1,0.2-0.5,0-0.4,0.5      c0,0.7,0.2,2.1-0.2,3.1c-0.2,0-0.2-0.2-0.4-0.1c-0.1,0.5-0.2,1.1-0.3,1.6c-0.1-0.2-0.2-0.5-0.2-0.6c-0.5-2.5,0-5.4-0.2-7.5      c0.4,0,0.4-0.6,0.7-0.8c-0.1,0.8-0.3,1.8,0.2,2c0.4-3.9,1.2-8.2,3-12.4c1.3-3.1,3.2-6.2,5.5-8.7c0.2,0.3-0.1,1,0,1.3      c2-2.1,3.3-4.6,5.5-6c0.1,0.5-0.9,0.9-0.9,1.3c0.9-0.9,1.2-0.6,2.2-0.9c0.3-0.4-0.4,0-0.5-0.4c0.6-0.4,1-0.9,1.4-1.2      c0,0.1-0.1,0.1-0.1,0.2c1.1-0.3,1.2-0.9,2-1.1c-0.1-0.1-0.3-0.2-0.6-0.1c0.2-0.1,0.5-0.3,0.8-0.4c-0.1,0-0.1,0.1-0.2,0.1      c0.6-0.3,0.1,0.1,0.1,0.3c0.1,0,0.2-0.1,0.2-0.1c-0.6,0.4-1,0.6-1.2,1.3c0.3-0.2,0.4,0,0.8-0.3c0.4-0.2-0.1-0.5,0.2-0.7      c0.3,0.2,0.7,0.1,1,0.1c0-0.2,0.1-0.4,0.3-0.5c0.1-0.2,0-0.3-0.1-0.3c0.1-0.1,0.2-0.1,0.4-0.2c0,0,0.1,0,0.1,0.1      c1.7-0.8,3.6-1.5,5.4-2.1c1.1-0.1,2.5-0.1,3.1-0.8c-0.2,0-0.4,0.1-0.5,0c0.1,0,0.3-0.1,0.4-0.1c0.2,0.2,0.5,0,0.2,0.4      c0.1,0,0.1,0,0.2-0.1c0,0.1,0,0.1,0.1,0.2c0.1,0,0.2-0.1,0.3-0.3c0.1,0,0.2,0,0.3-0.1c0,0-0.1,0.1-0.1,0.1      c0.8-0.2,1.5-0.1,2.6-0.3c0-0.1,0-0.2,0-0.3c0.2,0,0.3-0.1,0.5-0.1c0,0,0,0.1,0,0.1c0.4-0.2,0.8,0.2,0.8,0c0.1,0,0.1,0,0.2,0      c0,0.2-0.1,0.3-0.1,0.4c0.5,0,0.8,0,1-0.3c-0.1-0.1-0.2-0.1-0.3-0.1c0.2,0,0.4-0.1,0.6-0.2c0.3,0.1,0.4,0.2,0.4,0.6      c0.5-0.9,2.1,0.2,2.8,0c0.3,0,0.2-0.4,0.4-0.6c0.1,0,0.2,0,0.3,0c0.5,0.4,1.2,0.8,2.1,0.9c-0.8-0.2,0.1-0.3,0.2-0.4      c-0.2,0-0.2-0.1-0.2-0.2c0.3,0,0.6,0.1,0.9,0.1c0,0.2,0.1,0.3,0.3,0.3c0.2,0,0.2-0.1,0.2-0.3c0.3,0,0.5,0,0.8,0.1      c-0.1,0.4,0.5,0.5,0.7,0.8c-0.8-0.2-1.7-0.5-2,0c3.2,0.7,6.7,1.7,10.1,3.4c0,0,0,0,0,0.1c0,0,0.1,0,0.1,0      c0.6,0.3,1.2,0.6,1.8,0.9c0.4,0.2,0.7,0.4,1.1,0.7c0,0.1,0,0.2,0.2,0.2c0,0,0.1,0,0.1,0c0.4,0.3,0.8,0.5,1.2,0.8      c0.4,0.6,0.8,1.4,1.5,1.2c1.5,2.3,3.1,3.2,4.4,5.6c0.1-0.4,0.4,0.9,0.9,1c-0.8-0.1,0.5,0.5-0.3,0.4c0.7,0.7,0.9,1,1,1.8      c-0.2-0.4-0.3-0.5-0.4-0.1c-0.1,0.6,0.7-0.1,1,0.5c-0.6,0-0.4,0.4-0.3,0.9c0.3-0.3,0.2-0.6,0.5-0.5c0.4,0.4-0.2,0.5-0.1,0.8      c0.3-0.4,0.4-0.2,0.8,0c-0.5,0.1,0.3,0.8-0.3,0.5c0.4,0.5,0.5,0.8,0.3,1.3c-0.4-0.6-0.1-1-0.7-0.9c1.2,1,0.6,3.3,2,3.5      c-0.9,0.2,0,0.6-0.5,0.7c0.6,0.2,0.3,1,1,1.2c-0.1,0.5-0.3,0.8-0.4,1.3c0.3,0.4,0.4,1.2,0.9,1.3c-0.3,0.3-0.1,1.1-0.4,1.4      c0.4-0.2,0.6-0.2,0.9,0.2c-0.5,0.4-0.1,0.8-0.4,0.9c0.9,2.3-0.2,7,0.3,8.8c-0.6-0.3-0.4,0.7-0.8,0.7c0.7,0.3,0.1,0.8,0.4,1.3      c-1.4,0.8,0,3-1.9,3.5c0.2,1.4-0.6,2-1.2,3.5c-0.1-0.1-0.1-0.2-0.2-0.3c-0.1,0.7-0.5,0.8-0.3,1.4l-0.4-0.2      c0,1.1-1.7,1.7-2.1,3.4c-0.1,0.5-1.6,1.8-2,2.5c-0.2,0.3-0.1,0.8-0.3,0.1c-0.1,0.1-0.3,0.1-0.4,0.1c-0.1,0.7-0.7,0.9-0.9,1.8      c-0.2,0.1-0.5-0.2-0.7,0.1c0,0.2,0.2,0.5,0.1,0.7c1.8-0.1,1.8-2.2,3.2-2.9c-0.1,0.3-0.7,0.6-0.3,0.8c0.3,0,1.2-1,0.7-0.9      c0.3,0.2-0.3,0.4-0.4,0.3c0.5-0.4,0.3-0.9,0.7-1c0.3,0.2-0.3,0.7,0.3,0.6c0.4-0.9,0.9-1,1.5-1.5c-0.4,0.4,0.5,0.5,0.1,0.9      c-1.5,0.3-1,2-2.5,2.2c-0.4,0.3-0.1,0.4-0.2,0.7c-0.5-0.3-1.6,1.4-1.2,1.3c-0.5,0.5-0.8,0.3-1.2,0.4c-0.1,0.4,0.4,0.1,0.2,0.4      c-0.7-0.3-1.6,0.7-2.2,1.4l-0.3-0.3c-0.3,0.8-1.1,0.9-2,1.5c1,0.5,2.7-1.6,3.2-1.3c0.1,0,0.9-0.8,1.2-1.1c1.3-1,2.9-1.8,3.5-2.9      c-0.1,0.2-0.7,0.2-0.4-0.1c0.3-0.1,0.6,0.1,0.9,0.1c1.6-2.2,3.6-4,5.1-6.6c0.1-0.1,0.2-0.3,0.3-0.5c-0.2,0.6-0.5,1.1-0.7,1.7      c-1.6,1.1-2.2,4.3-4.1,4.8c0.1,1.1-0.9,1.4-1.4,2.7c-0.3,0.4-0.5-0.3-0.8,0.2c0.3,1.4-2.5,1.3-2.4,2.6c-0.2,0.1-0.5,0.2-0.7,0.4      c0,0-0.1,0-0.1,0c-0.1,0.1-0.1,0.1-0.2,0.2c-0.5,0.3-0.9,0.6-1.3,0.9c-1.4,0.8-3.3,1.4-4.8,2.2c0,0,0-0.1,0-0.1      c-0.4,0.2-0.9,0.1-0.8,0.5c-0.3,0.2-0.6,0.4-0.9,0.6c-0.1,0-0.1,0-0.2,0c0,0-0.1-0.1-0.2-0.1c-0.2,0-0.2,0-0.3,0.1      c-1.3,0.1-3,0.7-3.5,1.1c-0.5-0.3-2.8,0.2-3.2,0.4c0.2,0.3,0.8,0,1.3,0c-0.3,0.1-0.6,0.2-0.7,0.4c-0.1,0-0.1,0-0.2,0      c-0.1-0.3-0.4,0-0.5-0.1c0,0,0.1,0,0.1,0c-0.1-0.4-0.4-0.6-0.9-0.5c0,0.2,0,0.3-0.1,0.5c0.2,0,0.8-0.3,0.8,0      c-0.1,0-0.1,0.1,0,0.1c-0.2,0.2-0.5,0.2-0.7,0.3c-0.4,0-0.9,0-1.3,0c-0.1-0.1-0.2-0.1-0.4-0.2c-0.1,0.1-0.3,0.1-0.4,0.2      c-0.6,0-1.3,0.1-1.8,0.2c0-0.2,0-0.4-0.2-0.4c-0.3,0.4-0.9-0.1-1.6,0.1c-0.7-0.2,0.4,0.3,1.4,0.5C51.9,85,51.8,85.1,51.5,85.2       M37.5,86.6c-1.4-1.3-4.3-1.9-4.8-2.9c-0.8-0.1-2-1.6-3-1.8c0.5,0,0.1-0.3,0-0.5c-0.2,0.2-0.4,0.3-0.6,0.3      c0-0.8-0.8-1.3-1.5-1.8c0.5,0.3,0.9,0.5,1.5,0.6c0-0.2,0-0.4,0.2-0.4c0.7,0.7,1.5,1.4,2.4,2.1c1.2,1.1,7.4,3.9,8.5,4.4      c0,0-0.2,0.4-0.1,0.4c0.5,0.3,0.9-0.3,1,0.4C39.5,87.6,38.9,86.5,37.5,86.6 M83.6,63.4c0,0,0,0.1,0,0.1c0,0,0,0,0,0      C83.5,63.5,83.6,63.4,83.6,63.4 M43.2,17.1c-0.1,0.1-0.2,0.1-0.2,0.1C43,17.1,43.1,17.1,43.2,17.1 M41.3,17.6      C41.3,17.7,41.3,17.7,41.3,17.6C41.3,17.7,41.3,17.7,41.3,17.6C41.3,17.7,41.3,17.6,41.3,17.6 M34.7,19.7      C34.7,19.7,34.7,19.7,34.7,19.7c0.1-0.1,0.1-0.1,0.2-0.1C34.8,19.6,34.7,19.7,34.7,19.7 M50.7,16.4c-0.2,0-0.3,0-0.4-0.1      c0.1,0,0.2,0,0.3,0c0,0,0.1,0,0.1,0C50.7,16.3,50.7,16.3,50.7,16.4 M52.5,16.6c-0.1-0.1-0.4-0.2-0.7-0.2c0-0.1,0.1-0.2,0.1-0.2      c0.1,0,0.2,0,0.3,0c0,0,0.1,0,0.1,0.1c0,0,0,0,0-0.1c0.1,0,0.1,0,0.2,0C52.6,16.4,52.7,16.5,52.5,16.6 M55.8,16.9      c-0.5,0.1-0.8-0.1-1.3-0.4c0.3,0,0.7,0.1,1,0.2C55.6,16.7,55.7,16.8,55.8,16.9 M91.4,31.1c-0.2,0.1-0.3,0.1-0.5-0.3      c-1.6-3.4-4.5-8.3-8.7-12.4c-4.1-4.2-9.6-7.6-14.6-9.4c0.3,0.1,0.7,0.3,0.5,0.5c-4.4-1.7-8.6-2.7-12.6-3.1      C44.7,4.7,33.4,7,24.7,12.6c0.1,0.2,0.1,0.3-0.2,0.5c-3.2,2-7.7,5.5-11.3,10.1c-3.6,4.6-6.4,10.4-7.6,15.6      C5.7,38.5,5.8,38,6,38.2C3.4,48.5,4.1,57.3,7.7,64.9c0.2-0.2-0.5-1.2,0.1-1.1c0.4,1.1,0.9,2.3,1.5,3.4c0.7,1.6,1.5,3.7,2.6,4.2      C9.1,65.9,7.2,59.6,7,54c0.4,0.8,0.3,2.5,0.9,3.2c0.2-3.8-0.7-8.9,0.6-12.5c-0.3,1.9-0.5,4.5-0.3,7.1c0,1.9,0.9,7.2,1.5,7.7      c-0.1-0.1-0.1-0.6,0-0.6c0.3,0.6-0.4,0.9,0.1,1c0-0.2,0.1-0.2,0.2-0.2c1,2.2,2.3,5.6,3.3,7.3c1.2,2.2,2.8,4.2,4.6,6      c0,0.1,0.1,0.1,0.1,0.2c0.2,0.5,0.9,1.1,1.1,1.5c0.1,0.2-0.1,0.5,0,0.7c1.5,2.8,3.7,5.6,6.4,7.8c1.7,2,4.4,4.1,7.7,5.9      c3.2,1.7,6.9,3.1,10.3,3.9c2.4,0.6,5.3,0.7,7.1,1.1c2.4,0.5,6.6-0.2,8.7-0.6c12.6-1.9,25.1-10.5,31.4-22.9      C97.2,58.1,97,42.8,91.4,31.1"></path></g></g></g></g></g><g id="SvgjsG1821" featureKey="nameFeature-0" transform="matrix(0.6885980783641761,0,0,0.6885980783641761,56.669472662989364,0.5271789827543669)" fill="#e11d48"><path d="M1.44 38.88 l0.64 0 l-0.08 0.08 c0.68 0.08 1.2 0.12 2.2 0.12 c0.52 -1.64 0.24 -4.4 0.36 -4.44 c0 -1.4 -0.12 -2.8 -0.12 -4.16 c0 -0.08 0.08 -0.16 0.08 -0.52 c0 -0.16 -0.04 -0.72 -0.08 -0.56 c0 -0.08 0.08 -0.28 0.08 -0.48 c0 -0.52 -0.04 -2.56 -0.04 -8.72 c0 -0.2 0.04 -0.28 0.04 -0.56 c0 -0.44 -0.04 -1.2 -0.04 -1.28 c0 -2 0.08 -3.6 0.08 -4.96 c0 -1.12 -0.08 -1.92 -0.44 -2.04 c-1.96 0 -2.4 0.08 -2.76 0.08 c-0.08 0 -0.88 0.16 -0.88 -0.56 c0 -0.88 0.24 -0.64 0.44 -0.92 l10.24 0 c0.08 0 0.16 -0.08 0.24 -0.08 c3.92 0 8.92 0.52 9.08 1.08 c0 -0.04 0.04 -0.04 0.04 -0.04 c0.12 0 0.28 0.52 1.2 0.52 c0.04 0 0.04 -0.04 0.08 -0.04 c0.12 0 0.12 0.4 0.88 0.68 c0 -0.04 0.04 -0.04 0.04 -0.04 c0.16 0 0.44 0.84 0.68 0.84 c-0.08 0.08 1.16 0.48 1.16 1.4 c0.08 1 0.72 0.52 0.72 2.44 c0 1.12 -0.12 1.72 -0.12 2.04 c0 0.08 0 0.12 0.04 0.16 c-0.24 0.2 -0.24 1.04 -0.48 1.08 c0 0.84 -1.12 1.32 -1.32 1.88 c0 0.48 -0.64 0.4 -1.56 1.32 c-0.04 -0.04 -0.04 -0.04 -0.08 -0.04 c-0.2 0 -0.72 0.44 -1.28 0.44 c-0.8 0.2 -0.12 0.56 -1.32 0.56 c0 1.32 2.96 0.52 2.96 1.36 c0.04 0.04 0.6 0.44 1.12 0.44 c0.2 0.48 0.84 0.44 1.32 0.88 c0.32 0.2 0.68 1 1.08 1.4 c0.32 -0.08 0.36 1.08 0.6 1.08 l-0.04 -0.04 c0 0.4 0.6 1.16 0.6 2 c0 4.48 -0.76 2.76 -0.76 4.32 c-0.32 0 -0.36 0.6 -0.6 0.84 c-0.8 0.36 0.16 0.52 -3.32 2.32 c0 0.08 -0.64 0.68 -2.28 0.68 c-0.24 0 -0.56 0.32 -1 0.32 c-8.96 0.32 -8.04 0.44 -16.6 0.44 c-0.92 0 -1.68 -0.04 -1.64 -0.16 l0 -0.76 c0.36 -0.12 0.8 -0.32 0.84 -0.4 z M4.52 39.76 c-0.04 0 -0.04 0.04 -0.04 0.04 c0 0.04 0 0.04 0.04 0.04 c0 0 0.04 0 0.04 -0.04 z M12.4 39.76 c-0.04 0 -0.08 0.04 -0.08 0.08 s0.04 0.08 0.08 0.08 l0 -0.16 z M16.88 39.76 l0.08 0.08 l0 -0.08 l-0.08 0 z M4.88 39.52 c0 0.24 0.28 0.24 0.4 0.24 c-0.08 -0.04 -0.12 -0.28 -0.16 -0.32 c-0.16 0 -0.16 0 -0.24 0.08 z M17.08 39.68 c0 0 -0.04 0.04 -0.04 0.08 l0.08 0 c0 -0.04 -0.04 -0.08 -0.04 -0.08 z M2.2 39.28 c0 0.2 0.04 0.24 0.08 0.24 s0.12 0 0.12 -0.04 c0 -0.12 -0.12 -0.12 -0.2 -0.2 z M1.76 39.36 c0.04 0.08 0.16 0.04 0.24 0.04 c-0.08 -0.04 -0.16 -0.04 -0.24 -0.04 z M4.52 39.36 c-0.04 0 -0.04 0.04 -0.04 0.04 l0.08 0 z M13.36 39.36 c0.04 0.04 0.04 0.08 0.08 0.08 l0.04 -0.04 l0 -0.12 z M18.6 39.36 c-0.04 0 -0.04 0.04 -0.04 0.04 l0.08 0 c0 0.04 0 -0.04 -0.04 -0.04 z M2.6 39.36 c0 -0.04 -0.04 -0.04 -0.04 -0.04 c-0.04 0 -0.04 0 -0.04 0.04 s0 0.04 0.04 0.04 c0 0 0.04 0 0.04 -0.04 z M2.84 39.28 c-0.04 0 -0.08 0.04 -0.08 0.08 s0.04 0.04 0.08 0.04 s0.04 0 0.04 -0.04 s0 -0.08 -0.04 -0.08 z M1.2 39.2 c-0.04 0 -0.08 0.04 -0.08 0.08 s0.04 0.08 0.08 0.08 c0 0 0.04 -0.04 0.04 -0.08 s-0.04 -0.08 -0.04 -0.08 z M4.72 39.28 c0 -0.04 -0.04 -0.04 -0.04 -0.04 c-0.04 0 -0.04 0 -0.04 0.04 s0 0.08 0.04 0.08 c0 0 0.04 -0.04 0.04 -0.08 z M13.12 38.88 c-0.04 0.08 0.04 0.12 0.16 0.16 c0.2 0 0.56 0.04 0.56 -0.24 l2.48 0 l-0.08 0 c0 -0.04 0.84 0 2.12 -0.56 c1 -0.88 0.96 -0.84 1.24 -1.4 l-0.08 0 c0 -0.04 0.44 -0.32 0.44 -1 c0 -1.96 0.52 -2.4 0.52 -3.84 c0 -2.84 -0.48 -2.6 -0.48 -3.4 c0 -0.08 0.04 -0.16 0.04 -0.24 c0 -0.16 -0.04 -0.4 -0.32 -0.68 c-0.04 0 -0.04 0.04 -0.08 0.04 c-0.24 0 -0.08 -1.12 -0.76 -1.12 c-0.08 -0.08 -0.08 -0.32 -0.84 -0.72 l0 0.04 c-0.16 0 -1.36 -0.76 -2.32 -0.76 c-1.12 0 -2.56 -0.08 -4.96 -0.08 c-0.16 0.08 -0.2 0.16 -0.2 0.2 c0 0 0.04 0 0.04 0.04 l-0.04 0 l-0.04 -0.04 c-0.08 0 -0.2 0.36 -0.2 3.16 c0 0.88 0.04 3.24 0.04 5.8 c0 0.68 -0.04 1.48 -0.04 2.2 c0 1.08 0.08 2.04 0.52 2.36 l0.48 0 l0.08 0.16 l0.84 0 l0.08 -0.08 l0.8 0 z M21.04 35.68 c-0.04 0 -0.08 0.04 -0.08 0.08 c0 0 0.04 0.04 0.08 0.04 l0 -0.12 z M10.36 23.76 c0 0.16 0.24 0.28 0.24 0.32 l3.16 0 c0.2 -0.16 1.24 0.08 1.56 -0.4 c1.48 0 2 -0.4 2.28 -0.76 l0 0.04 c0.08 0 0.48 -0.6 0.72 -0.56 c-0.04 -0.04 -0.08 -0.12 -0.08 -0.16 c0 -0.28 0.76 -0.4 0.76 -1.4 c0.12 -2.44 0.32 0.84 0.32 -4.76 c0 -0.4 0 -0.68 -0.08 -1.08 c0 0 -0.08 -1.4 -0.64 -1.88 l0 0.04 c-0.04 0 -0.28 -0.88 -1.08 -1.12 c-0.08 0 -0.64 -0.68 -2.04 -0.68 l-4.96 0 c-0.24 0.08 -0.32 1.12 -0.32 1.44 c0.04 0.08 0.12 0.72 0.12 1.44 c0 0.08 0 0.16 -0.08 0.24 l0 2.84 c0 0.44 0.08 0.64 0.08 1.52 c0 0.6 0 1.24 -0.08 1.24 c0 1.32 0.12 2.56 0.12 3.68 z M4.84 21.72 c-0.08 0 -0.08 0.04 -0.12 0.04 c0 0 -0.04 0 0.12 -0.04 z M23.32 21.64 c0 -0.04 -0.04 -0.04 -0.04 -0.04 c-0.04 0 -0.04 0 -0.04 0.04 s0 0.08 0.04 0.08 c0 0 0.04 -0.04 0.04 -0.08 z M2.84 11 c0 0.12 0 0.12 0.08 0.2 c0.16 0 0.2 0 0.32 -0.08 l-0.2 -0.24 c-0.16 0 -0.24 0.04 -0.24 0.08 s0.04 0.04 0.04 0.04 z M0.92 10.440000000000001 c-0.28 0 -0.2 0.2 -0.2 0.44 c0.16 -0.2 0.2 -0.16 0.2 -0.44 z M2.76 10.879999999999999 c0 -0.04 0 -0.04 -0.04 -0.04 l0 0.12 c0.04 0 0.04 -0.04 0.04 -0.08 z M1.6 10.600000000000001 c0 0.08 0.16 0.2 0.24 0.2 c0.04 0 0.24 0 0.32 -0.08 l-0.04 0 s0.04 0 0.04 -0.04 s-0.04 -0.12 -0.16 -0.12 c-0.08 0 -0.2 0.04 -0.4 0.04 z M3.24 10.559999999999999 c-0.12 0 -0.24 0.04 -0.24 0.16 c0.04 -0.04 0.2 -0.12 0.24 -0.16 z M2.6 10.559999999999999 c-0.12 0 -0.2 0 -0.2 0.08 c0 0.04 0 0.04 0.04 0.04 c0.12 0 0.16 -0.08 0.16 -0.12 z M15.92 10.559999999999999 l0 0.04 l0.12 -0.04 l-0.12 0 z M29.228 39.64 l0 -0.2 c0.08 -0.08 -0.04 -0.76 0.84 -0.76 c0.68 0 0.8 0.04 1.16 0.04 c0.8 0 1.4 -0.04 1.52 -0.24 l0 -3.4 c0 -0.08 -0.04 -0.36 -0.04 -0.4 l-0.04 0.04 c-0.08 -0.08 0.08 0.36 0.08 -1.08 c0 -3 -0.04 -4.12 -0.04 -5.12 c0 -0.64 0 -1.88 0.08 -2.92 c0 -0.08 -0.16 -0.6 -0.16 -1.6 c0 -0.48 0.12 -0.48 0.12 -0.72 c0 -0.64 -0.04 -1.24 -0.04 -1.72 c0 -0.84 0.04 -1.48 0.04 -2.4 c0 -0.24 0.6 -0.2 0.72 -0.32 c0 0 0 -0.2 -0.36 -0.2 c0 0 -0.12 0 -0.24 0.16 c-0.04 0 -0.08 -0.04 -0.12 -0.16 l0 -6.76 c0 -0.52 -0.12 -0.84 -0.64 -0.84 c-0.76 0 -0.92 0.12 -2.28 0.12 c-1.08 0 -0.44 -0.16 -1.04 -0.52 c0 -0.96 3 -0.68 3.84 -0.8 l-0.12 0 c0 0.04 2.32 0.16 2.32 0.16 c0.08 0 0.16 0.04 0.24 0.04 c0.48 0 0.68 -0.2 1.04 -0.2 c0.16 0 0.32 0.04 0.52 0.04 c0.12 0 0.44 -0.04 0.64 -0.04 c0.48 0 1.92 0.04 2.36 0.04 c0.32 0 0.56 -0.12 1.2 -0.12 c0.2 0 3.68 0.08 4.12 0.08 c0.8 0 2.12 0.4 3.2 0.4 c1.52 0.16 0.6 0.36 2.12 0.72 c-0.04 0 -0.08 -0.04 -0.08 -0.04 c0 0.04 1.12 0.64 1.12 0.76 c0.48 0.12 1.2 1.12 1.56 1.44 l-0.04 -0.04 s1.08 1.52 1.08 2.88 c0 1.48 0 1.56 -0.32 2.56 c0 0.68 -0.92 1.88 -2.52 3.24 c-0.2 -0.08 -0.44 0.68 -1.16 0.68 c0.12 -0.4 -0.2 0.52 -1.32 0.6 c-0.04 -0.04 -0.08 -0.04 -0.08 -0.04 c-0.2 0 -0.48 0.36 -0.64 0.36 c-1.52 0.4 -2.2 0.24 -2.2 0.84 c0 0 -0.08 0.32 0.24 0.32 c0.44 -0.08 1.16 0.64 1.4 0.64 c0.84 0 1 0.76 1.68 0.76 c0.72 0.32 1 0.56 1.88 1.48 c0.88 2.6 1.56 1.2 1.56 3.16 c0 1.08 0.36 1.84 0.36 2.92 c0 0.16 -0.08 0.84 -0.08 2.24 c0.08 0.52 0.12 1.56 0.28 1.72 l0 -0.08 c0 0.04 -0.12 1.32 1.28 1.32 c0.96 0 1.4 -0.12 1.68 -0.12 c0 0 0.04 0.04 0.08 0.04 c0.08 0 0.28 -0.08 0.44 -0.08 s0.32 0.04 0.4 0.2 l-0.28 0 c0 0.2 0.12 0.2 0.12 0.28 c0.08 -0.04 0.12 -0.12 0.16 -0.12 l0.04 0 l0 0.52 c-0.12 0 -0.12 -0.12 -0.12 -0.28 c-0.08 0.04 -0.12 0.04 -0.32 0.12 c0 0.08 0.04 0.16 0.32 0.28 c-0.16 0.08 -0.2 0.28 -0.4 0.28 l0 -0.04 s-0.2 0.4 -1.4 0.4 c-0.44 0 -3.16 -0.16 -3.88 -0.2 c0 0.04 0 0.04 -0.04 0.04 c-0.32 0 -1.08 -0.8 -1.72 -0.8 l0.04 0 c0 -0.16 -1.8 -1 -1.84 -1.76 l0.04 0.04 c0 -0.04 -0.4 -0.4 -0.4 -0.52 c0 -0.08 0.04 -0.32 0.04 -0.56 c0 -0.12 -0.12 -0.12 -0.32 -0.2 c-0.28 -6.52 -0.88 -8.32 -1.48 -9.2 c-0.12 0.44 0.16 -0.48 -0.76 -0.92 c0 -0.28 -1.24 -0.72 -1.2 -0.88 c-0.08 0 -0.16 0.04 -0.2 0.04 c-0.84 0 -0.8 -0.8 -2.16 -0.8 l-2.16 0 c-0.44 0.92 -0.44 2.08 -0.44 2.64 c0 0.12 0 1.04 0.08 1.12 c0 0.04 -0.04 0.16 -0.12 0.56 c0 0.12 0.08 0.6 0.08 0.92 l0 -0.04 c0 0.24 -0.04 1.12 -0.04 1.4 c0 0.52 0.04 0.64 0.04 1 l0 4.64 c0 0.08 0.08 0.32 0.08 0.4 c0 0.12 -0.08 0.36 -0.08 0.52 c0 0.52 0.08 0.6 0.08 0.8 c-0.04 0.04 -0.08 0.04 -0.08 0.08 c0 0.12 0.56 0.2 1.64 0.2 c0.04 0 0.84 -0.08 0.88 -0.08 c1.12 0 1.12 0.08 1.36 0.4 c0 0.72 -0.16 0.84 -0.28 0.84 c-0.04 0 -0.08 -0.04 -0.16 -0.2 c-0.2 0 -0.24 0 -0.24 0.04 c0.32 0.36 -3.88 0.36 -4.32 0.36 l0.08 0 s-1.36 -0.04 -1.88 -0.16 c-1.6 0.16 -4.36 0 -5.48 0.4 c-0.48 0 -0.92 0 -0.92 -0.64 z M53.908 39.88 c-0.04 0 -0.08 0.04 -0.08 0.08 s0.04 0.08 0.08 0.08 c0 0 0.04 -0.04 0.04 -0.08 s-0.04 -0.08 -0.04 -0.08 z M54.988 39.52 c-0.28 0 -0.2 0.16 -0.32 0.36 c0 0 0.04 0.04 0.08 0.04 c0.12 0 0.24 -0.2 0.24 -0.4 z M31.308 39.76 c-0.08 0 -0.2 0 -0.28 0.04 c0.08 0 0.2 0 0.28 -0.04 z M31.388 39.76 l0 0.04 l0.08 0 z M32.828 39.8 l-0.04 -0.04 c-0.04 0 -0.04 0.04 -0.04 0.04 c0 0.04 0 0.08 0.04 0.08 c0 0 0.04 -0.04 0.04 -0.08 z M33.588 39.72 c-0.04 0.04 -0.08 0.04 -0.08 0.08 c0.04 0 0.12 0 0.16 -0.04 z M39.788000000000004 39.64 l0 0.12 l0.24 0 c-0.08 -0.08 -0.12 -0.12 -0.24 -0.12 z M41.348 39.72 c-0.04 0 -0.08 0.04 -0.08 0.04 s0.04 0.04 0.08 0.04 s0.04 -0.04 0.04 -0.04 s0 -0.04 -0.04 -0.04 z M55.148 39.4 c-0.04 0.12 0.16 0.32 0.16 0.36 c0.2 0 0.2 0 0.32 -0.04 c-0.12 -0.36 0 -0.44 -0.32 -0.6 c-0.12 0.08 -0.16 0.04 -0.16 0.28 z M39.228 39.64 l-0.08 0.08 l0.08 0 l0 -0.08 z M41.908 38.92 c0 0.36 0.24 0.36 0.24 0.64 l0.08 0 l0 -0.44 c-0.04 -0.08 -0.12 -0.16 -0.32 -0.2 z M29.908 39 l0 0.12 c0 -0.04 0.04 0.36 0.28 0.36 c0.04 0 0.12 -0.08 0.2 -0.16 c-0.04 0.04 -0.32 -0.32 -0.44 -0.32 l-0.04 0 z M30.588 39.4 c0 -0.04 -0.04 -0.04 -0.04 -0.04 c-0.04 0 -0.04 0 -0.04 0.04 c0 0 0 0.04 0.04 0.04 z M39.308 39.32 c-0.04 0 -0.04 0.04 -0.04 0.04 c0 0.04 0 0.04 0.04 0.04 s0.04 0 0.04 -0.04 c0 0 0 -0.04 -0.04 -0.04 z M40.548 39.2 l0 0.2 c0.08 -0.04 0.16 -0.08 0.2 -0.16 c-0.08 -0.04 -0.12 -0.04 -0.2 -0.04 z M29.908 38.72 c-0.04 0 -0.04 0.04 -0.04 0.08 s0 0.08 0.04 0.08 s0.04 -0.04 0.04 -0.08 s0 -0.08 -0.04 -0.08 z M48.348 37.68 c0.04 0.08 0.08 0.2 0.08 0.2 c0.04 0 0.04 0 0.04 -0.04 l0 -0.16 l-0.12 0 z M37.188 36.6 l0.16 0.08 c0.08 -0.04 0.08 -0.12 0.08 -0.2 c-0.12 0 -0.16 0.04 -0.24 0.12 z M46.668000000000006 35 c0.04 0 0.04 0.04 0.04 0.08 c0 0 0 0.04 -0.04 0.04 s-0.04 -0.04 -0.04 -0.04 c0 -0.04 0 -0.08 0.04 -0.08 z M47.148 34.96 c0.04 0.04 0.08 0.04 0.16 0.04 c-0.08 -0.04 -0.12 -0.04 -0.16 -0.04 z M33.268 30.8 c-0.04 0 -0.08 0.04 -0.08 0.08 s0.04 0.08 0.08 0.08 s0.04 -0.04 0.04 -0.08 s0 -0.08 -0.04 -0.08 z M32.948 29.759999999999998 c-0.04 0 -0.08 0.04 -0.08 0.08 s0.04 0.08 0.08 0.08 s0.04 -0.04 0.04 -0.08 s0 -0.08 -0.04 -0.08 z M46.308 24.96 c-0.04 0 -0.08 0.04 -0.08 0.04 c0 0.04 0.04 0.08 0.08 0.08 c0 0 0.04 -0.04 0.04 -0.08 z M36.748000000000005 24.28 l0 0.16 l0.04 0.04 c0.12 0 0.28 -0.16 0.28 -0.2 l-0.32 0 z M36.828 23.88 c0 0.04 -0.04 0.04 -0.04 0.04 c0 0.04 0.04 0.04 0.16 0.04 c0 0 0.04 0 0.12 -0.04 c-0.04 -0.12 0 -0.16 -0.12 -0.32 c-0.04 0 -0.16 0.24 -0.12 0.28 z M38.508 20.44 l0 2.04 c0 0.68 0.4 0.8 0.76 1 c6.36 -0.16 6.36 -1.04 6.96 -1.64 c-0.04 0 -0.04 -0.04 -0.04 -0.04 c0 -0.2 0.6 -0.6 0.6 -0.88 l-0.04 0 c0 -0.16 0.84 -1.48 0.84 -3.2 c0 -4.08 -1.12 -4.84 -1.28 -5.68 c0 -0.04 -1.2 -1.08 -2.6 -1.08 c-0.88 0 -1.08 0.08 -1.4 0.08 l-3 0 c-0.84 0 -0.52 0.4 -0.76 0.84 l0 3.16 l0.08 0.2 c0 1.56 -0.16 3 -0.16 4.4 c0 0.08 0 0.2 0.12 0.32 c0 0.08 -0.08 0.2 -0.08 0.48 z M33.268 19.56 c-0.04 0 -0.08 0.04 -0.08 0.04 l0.08 0 l0.04 0 s0 -0.04 -0.04 -0.04 z M33.148 19.36 c-0.04 0 -0.04 0.04 -0.04 0.08 c0 0 0 0.04 0.04 0.04 l0.04 -0.04 c0 -0.04 -0.04 -0.08 -0.04 -0.08 z M33.268 19.16 c-0.04 0 -0.08 0.04 -0.08 0.08 c0 0 0.04 0.04 0.08 0.04 s0.04 -0.04 0.04 -0.04 c0 -0.04 0 -0.08 -0.04 -0.08 z M32.948 16.84 l0 0.2 l0.08 0 c0 -0.08 0 -0.16 -0.08 -0.2 z M50.988 12.2 c0.04 0.08 0.16 0.08 0.2 0.08 l0 -0.24 c-0.12 0 -0.2 0 -0.2 0.16 z M47.948 10.84 c-0.04 0 -0.08 0.04 -0.08 0.08 s0.04 0.04 0.08 0.04 s0.04 0 0.04 -0.04 s0 -0.08 -0.04 -0.08 z M31.388 10.559999999999999 c0.08 0.04 0.16 0.04 0.24 0.04 l-0.16 -0.12 z M35.268 10.559999999999999 l0 -0.04 c-0.04 0 -0.04 0 -0.04 0.04 s0 0.04 0.04 0.04 l0 -0.04 z M44.628 10.48 l0.16 0.08 c0.2 0 0.2 -0.08 0.2 -0.28 c0 -0.04 -0.04 -0.04 -0.2 -0.04 c-0.08 0 -0.16 0 -0.16 0.24 z M40.548 10.239999999999998 c0 0.08 -0.04 0.24 0.08 0.24 c0.04 -0.04 0.08 -0.16 0.12 -0.24 l-0.2 0 z M46.148 10.399999999999999 c-0.04 0 -0.08 0.04 -0.08 0.04 c0 0.04 0.04 0.04 0.08 0.04 s0.04 0 0.04 -0.04 c0 0 0 -0.04 -0.04 -0.04 z M31.988 10.239999999999998 l0 0.08 c0 -0.04 0.12 0.08 0.2 -0.08 l-0.2 0 z M42.308 10.239999999999998 c-0.08 0 -0.12 0.04 -0.16 0.08 l0.16 0 l0 -0.08 z M29.228 10.239999999999998 l0.04 0 l0.96 0 l-1 0 z M58.896 39.36 c0.2 -0.56 0.32 -0.68 0.76 -0.68 c1.32 0 1.6 0.12 2.56 0.12 c0.36 0 0.52 -0.32 0.68 -0.52 l-0.08 -6.16 c0 -0.08 0.08 -0.2 0.08 -0.28 c0 0.04 -0.08 -0.56 -0.08 -0.72 c0 -0.04 -0.04 -0.8 0.08 -1.16 c0 -0.04 -0.08 -0.16 -0.08 -0.24 l0 -2.84 c0.08 -0.08 0.08 -0.2 0.08 -0.28 c0 -0.24 -0.08 -0.36 -0.08 -0.56 c0 0 -0.12 -9.6 -0.12 -12.72 l0.08 -0.16 l0 -1.88 c-0.28 -0.4 -1.2 -0.12 -1.32 -0.32 l-0.24 0.08 l0 0.04 c-0.08 0 -0.32 -0.12 -0.76 -0.12 c-0.08 0 -0.48 0.08 -0.56 0.16 c-0.64 0 -1.08 0.12 -1.08 -0.72 c0 -0.32 0.2 -0.76 1.52 -0.76 c0.16 0 0.52 0.08 0.76 0.08 c0.16 0 2.24 -0.08 2.28 -0.08 c0.28 0 0.76 0.12 0.92 0.12 c0.16 0.04 2.24 -0.16 3.2 -0.16 c0.12 0 0.08 0.36 0.36 0.36 c0 0 0.04 0 0.04 -0.04 s-0.04 -0.12 -0.04 -0.2 c0.44 0 0.88 -0.12 1.52 -0.24 c0.04 0.04 0.2 0.08 0.16 0.12 c0.04 0 0.12 -0.08 0.12 -0.16 c0.04 0 0.24 0.04 0.32 0.12 c0.2 -0.04 0.72 -0.16 0.76 -0.16 c1.56 0 1.64 0.72 1.64 1.12 c0 0.2 -0.28 0.6 -0.48 0.6 c-0.8 0 -2.32 -0.2 -2.68 -0.2 c-0.32 0 -0.48 0.52 -0.52 0.76 l0.04 13.4 c0 0.2 -0.04 0.76 -0.04 0.84 c0 0.04 0.04 -0.04 0.04 0.6 c0 1.4 -0.04 1.96 -0.04 2.72 c0 1.08 0.04 0.96 0.04 1.24 l0 4.64 c0 0.2 -0.12 3.36 0.48 3.48 c0.08 0 1.52 0.04 2.2 -0.04 l0.08 -0.08 l0.72 0 c0.44 0.2 0.52 0.6 0.52 0.76 c0 0.2 -0.32 0.68 -0.44 0.68 c-1.88 0 -4.76 0.12 -5.16 0.12 c0 0 -1.2 -0.08 -1.8 -0.08 c-1.76 0 -4 0.12 -5.28 0.12 c-1.04 0 -1.16 -0.32 -1.16 -0.72 z M59.736 39.84 c0 -0.04 -0.04 -0.04 -0.08 -0.04 s-0.08 0 -0.08 0.04 s0.04 0.08 0.08 0.08 s0.08 -0.04 0.08 -0.08 z M59.976 39.76 c0.16 0 0.24 0.08 0.4 0.08 c0.08 0 0.2 0 0.32 -0.08 c-0.28 0 -0.36 -0.28 -0.48 -0.32 c-0.04 0 -0.24 0 -0.24 0.24 l0 0.08 z M60.776 39.76 c-0.04 0 -0.08 0.04 -0.08 0.08 s0.04 0.08 0.08 0.08 c0 0 0.04 -0.04 0.04 -0.08 s-0.04 -0.08 -0.04 -0.08 z M61.776 39.68 l0.08 0.08 c0.2 0 0.24 0 0.32 -0.08 l-0.08 -0.04 c-0.36 0 -0.24 0 -0.32 0.04 z M70.376 39.36 c-0.24 0.08 -0.2 0.16 -0.2 0.4 c0.2 -0.08 0.16 -0.2 0.24 -0.4 l-0.04 0 z M71.736 39.36 c-0.28 0 -0.28 0.28 -0.32 0.4 l0.48 0 c0 -0.28 -0.08 -0.4 -0.16 -0.4 z M68.736 39.64 l-0.12 0.04 c0 0.04 0 0.04 0.04 0.04 z M69.21600000000001 39.68 l-0.08 -0.04 z M72.21600000000001 39.28 l0 0.24 c0.12 0.04 0.2 -0.16 0.2 -0.24 l-0.2 0 z M59.496 39.04 c-0.28 0 -0.28 0.28 -0.28 0.4 c0.16 -0.12 0.4 -0.08 0.44 -0.16 c0 -0.04 0.04 -0.24 -0.16 -0.24 z M62.496 39.32 l0.08 0.12 l0 -0.12 l-0.08 0 z M60.136 39.12 l0 0.08 l0.08 -0.08 l-0.08 0 z M71.336 39.04 c0 0.04 -0.04 0.04 -0.04 0.08 s0.04 0.04 0.12 0.08 l0.08 -0.08 l-0.08 -0.16 c-0.04 0 -0.08 0.04 -0.08 0.08 z M71.976 39.12 c0.04 0.08 0.12 0.08 0.2 0.08 c0 -0.04 -0.04 -0.12 -0.04 -0.2 z M63.336 38.6 c-0.04 0.04 -0.04 0.04 -0.04 0.08 s0.12 0.04 0.2 0.04 l0 -0.12 l-0.16 0 z M68.056 12.8 c-0.04 0 -0.08 0 -0.08 0.04 l0.08 0 l0.04 0 c0 -0.04 0 -0.04 -0.04 -0.04 z M70.096 10.64 c-0.04 0 -0.08 0.04 -0.08 0.08 s0.04 0.08 0.08 0.08 s0.04 -0.04 0.04 -0.08 s0 -0.08 -0.04 -0.08 z M59.096000000000004 10.280000000000001 c-0.04 0 -0.08 0.04 -0.08 0.08 c0 0 0.04 0.04 0.08 0.04 s0.04 -0.04 0.04 -0.04 c0 -0.04 0 -0.08 -0.04 -0.08 z M61.376 10.079999999999998 c-0.04 0 -0.08 0.04 -0.08 0.08 c0 0 0.04 0.04 0.08 0.04 l0 -0.12 z M61.936 10.079999999999998 c0 0.04 -0.04 0.04 -0.04 0.04 c0 0.04 0.04 0.04 0.12 0.08 l0 -0.12 l-0.08 0 z M59.416 10.04 c-0.16 0 -0.12 0.04 -0.12 0.12 c0.08 0 0.16 0 0.2 -0.08 z M75.56400000000001 40.16 c-0.44 0 -0.44 0.04 -0.72 0.04 c-0.08 0 -0.44 -0.32 -0.56 -0.44 c0 0 0.08 -0.6 0.08 -0.72 c1.44 -0.12 2.48 -0.16 3.6 -0.28 c0.12 0 0 -0.76 0.44 -0.76 l0 -0.64 c0.04 0.04 0.08 0.04 0.08 0.04 c0.24 0 0.2 -1.12 0.52 -1.2 c0 -0.08 0.16 -1.44 0.56 -1.76 l0.2 -0.76 s1.36 -4.64 1.88 -4.64 c0.04 0 0.12 0.04 0.16 0.04 c0.2 0 0.24 -0.08 0.24 -0.16 c0 -0.36 -0.32 -0.2 -0.32 -0.48 c0 -0.72 0.72 -2.08 0.8 -2.16 c0.04 -1.64 0.64 -1.24 0.64 -2.28 l0 0.04 c0.04 0 0.36 -1 0.52 -1.12 c0 0.08 0.04 0.08 0.04 0.08 s-0.04 0 -0.04 -0.04 c0 -0.24 0.8 -1.88 0.8 -2.32 c0.2 0 0.24 -0.04 0.24 -0.12 s-0.04 -0.16 -0.04 -0.28 c0 -0.24 0.08 -0.48 0.36 -0.8 l0 0.04 c0.08 0 0.04 -0.88 0.36 -0.88 l0.16 -0.76 l0.24 -0.2 l0 -0.64 l0.32 -0.24 l0 -0.68 s0.24 -0.08 0.24 -0.16 c-0.04 0 -0.08 -0.08 -0.08 -0.12 c0 -0.52 1 -2.04 1 -3.08 l0.2 -0.16 l0 -0.64 c0 0.04 0.04 0.04 0.04 0.04 c0.56 0 -0.2 -2.32 1.88 -2.32 c0.16 0 0.88 0.44 0.88 1.04 c0.16 0.16 -0.16 0.56 0.56 1.88 c0.04 0 1 2.6 1 3.28 c0.36 0 0.12 0.8 1.04 2.72 c0.24 1.08 0.68 1.04 0.68 1.52 l0 -0.04 s0.2 1.28 0.36 1.28 l-0.04 0 c0 0.16 0.96 1.2 0.96 2.44 c0.24 1.16 0.64 0.68 0.64 1.68 l-0.04 -0.04 c0 0.08 0.64 0.92 0.64 1.44 c-0.04 0 -0.08 0 -0.08 0.04 c0 0.16 0.44 0.72 0.44 0.92 c0 0.04 -0.04 0.04 -0.04 0.08 c0 0.08 0.4 0.4 0.4 1.12 c0.16 1.4 0.84 1.48 0.84 2.36 c-0.04 0.08 -0.08 0.12 -0.08 0.16 c0 0.2 0.64 0.2 0.64 1.12 c0 2.28 1.56 2.8 1.56 4.4 c0.16 1.28 0.92 1.72 1.04 1.8 l2.6 0 c0.16 0 0.4 0.12 0.52 0.2 l0 0.72 c-0.16 0.08 -0.28 0.24 -0.92 0.24 c-0.08 0 -2 -0.08 -2.8 -0.08 c-0.36 0 -0.68 0.08 -1 0.08 c-0.04 0 -0.68 -0.08 -0.76 -0.08 c-2.16 0 -3.52 0.12 -4.36 0.12 c-0.04 0 -0.04 -0.12 -0.68 -0.12 c-0.32 0 -0.4 0 -0.56 0.08 c-0.2 0 -0.36 -0.08 -0.44 -0.2 c-0.08 0 -0.24 0.04 -0.24 0.04 l0.08 0.08 l-0.08 0.08 c-1.32 0 -1.44 0 -1.72 -0.24 l0.08 -0.68 c0 -0.08 0.28 -0.24 0.44 -0.24 l3 0 c0.04 0.04 0.32 -0.2 0.32 -0.4 c0 -0.08 -0.64 -0.92 -0.64 -1.4 c0.08 -0.04 0.08 -0.04 0.08 -0.12 c0 -0.2 -0.68 -0.72 -0.68 -1.76 c0.04 0 0.04 0 0.04 -0.04 c0 -0.08 -0.44 -0.4 -0.44 -0.72 c0 -1.44 -0.64 -1.44 -0.64 -2.52 l0 0.04 c-0.08 0 -0.44 -1 -0.8 -1 c-2.68 0 -5.52 0.08 -8.76 0.08 c0 0.16 -0.32 0.24 -0.32 0.68 c-0.6 1.32 -0.68 1.12 -0.68 1.76 c-0.48 0.32 0.04 0.56 -0.52 1.24 c-0.32 2.2 -0.76 0.96 -0.76 2.44 l0 -0.04 c-0.08 0 -0.44 1.04 -0.48 1.04 c0 0.64 0.16 0.64 0.4 0.8 l3.2 0 c0.2 0 0.6 0.04 0.6 0.52 s-0.12 0.72 -0.84 0.72 c-0.12 0 -0.28 -0.08 -0.48 -0.08 c-0.44 0 -0.6 0.08 -0.8 0.08 c-0.08 0 -0.28 -0.08 -0.32 -0.08 l-2.84 0 c-0.08 0.08 -0.16 0.08 -0.24 0.08 c-0.12 0 -0.32 -0.04 -0.48 -0.16 c0 0 0.08 -0.08 0.08 -0.16 l-0.12 0 c-0.08 0 -0.12 0 -0.12 0.08 l0.04 0.08 c-0.04 0.16 -0.08 0.16 -0.32 0.16 c0 -0.52 0 -0.4 0.12 -0.56 c-0.04 -0.16 0.04 -0.36 -0.08 -0.44 c0 0.28 -0.12 0.48 -0.36 0.64 c0 0.08 0.12 0.16 0.2 0.2 c-0.16 0 -0.6 0.2 -0.68 0.32 c-0.72 0 -0.64 -0.16 -1.08 -0.16 z M75.244 39.84 l0 0.08 l0.2 0 c-0.12 -0.08 -0.16 -0.08 -0.2 -0.08 z M75.924 39.92 c0 -0.04 -0.04 -0.04 -0.08 -0.04 s-0.08 0 -0.08 0.04 s0.04 0.08 0.08 0.08 s0.08 -0.04 0.08 -0.08 z M76.164 39.84 c-0.04 0 -0.08 0.04 -0.08 0.08 s0.04 0.08 0.08 0.08 s0.04 -0.04 0.04 -0.08 s0 -0.08 -0.04 -0.08 z M77.044 39.76 c-0.24 0 -0.56 0.08 -0.64 0.16 c0.68 0 0.48 -0.04 0.64 -0.16 z M78.364 39.8 c0 0.04 0.32 0.08 0.36 0.12 l0.08 -0.08 c-0.2 -0.04 -0.4 -0.04 -0.44 -0.04 z M81.324 39.84 c0.52 0 1.32 0.08 1.52 0.08 c-0.44 0 -0.44 -0.44 -0.48 -0.64 c0.04 0 -0.32 0.08 -0.32 0.32 c-0.08 0 -0.04 -0.24 -0.36 -0.24 c0 0.28 -0.16 0.36 -0.36 0.48 z M83.164 39.84 l0.08 0.08 c0.04 0 0.28 -0.08 0.36 -0.08 l-0.44 0 z M77.644 39.8 c-0.04 0 -0.08 0.04 -0.08 0.08 c0 0 0.04 0.04 0.08 0.04 s0.04 -0.04 0.04 -0.04 c0 -0.04 0 -0.08 -0.04 -0.08 z M80.804 39.84 c0 0 -0.08 -0.04 -0.12 -0.04 c-0.08 0 -0.08 0.04 -0.08 0.04 c0 0.04 0 0.08 0.08 0.08 c0.04 0 0.12 -0.04 0.12 -0.08 z M90.644 39.76 c0.04 0.04 0.16 0.08 0.2 0.08 s0.24 -0.04 0.32 -0.08 l0 -0.48 s-0.08 -0.04 -0.12 -0.04 c-0.36 0 -0.4 0.08 -0.4 0.24 l0 0.28 z M101.48400000000001 39.8 c0.12 0 0.16 0.04 0.36 0.04 c0.04 0 0.24 -0.04 0.36 -0.04 l-0.72 0 z M103.404 39.8 l0 0.04 l0.04 -0.04 l-0.04 0 z M91.76400000000001 39.76 l-0.08 0.04 l0.12 0.04 z M94.76400000000001 39.76 c-0.04 0 -0.08 0.04 -0.08 0.04 s0.04 0.04 0.08 0.04 s0.04 -0.04 0.04 -0.04 s0 -0.04 -0.04 -0.04 z M100.244 39.76 c0.04 0.04 0.08 0.04 0.2 0.04 l0.76 0 c-0.04 -0.04 -0.12 -0.08 -0.2 -0.12 c-0.08 0.08 -0.2 0.08 -0.24 0.08 c-0.36 0 -0.28 -0.28 -0.36 -0.28 z M74.604 39.48 c0 0.24 0 0.2 0.08 0.28 l0.52 0 l0 -0.68 c-0.56 0.28 -0.6 0.16 -0.6 0.4 z M83.04400000000001 39.56 l0 0.2 c0.08 0 0.12 -0.08 0.12 -0.08 c-0.04 -0.24 -0.16 -0.24 -0.16 -0.44 c-0.16 0 -0.24 0.08 -0.24 0.12 c0.04 0.08 0.08 0.2 0.28 0.2 z M102.604 39.68 c-0.04 0 -0.04 0.04 -0.04 0.08 s0 0.04 0.04 0.04 s0.04 0 0.04 -0.04 s0 -0.08 -0.04 -0.08 z M75.684 39.24 c0 0.32 -0.04 0.4 -0.12 0.44 c0.24 0 0.44 0 0.44 -0.24 s-0.04 -0.2 -0.32 -0.2 z M79.924 39.6 l0 0.08 l0.08 0 z M80.644 39.44 l0.08 0.04 l0 -0.12 z M83.244 39.16 c0 0.04 0 0.12 0.04 0.12 c0 0 0.16 0 0.16 -0.12 c0 -0.08 -0.08 -0.08 -0.16 -0.12 c-0.04 0.04 -0.04 0.08 -0.04 0.12 z M101.524 39.24 c0 0.04 0.08 0.04 0.12 0.04 c0 -0.2 0 -0.2 -0.08 -0.24 c0 0 -0.04 0.12 -0.04 0.2 z M103.284 38.96 c-0.2 0.04 -0.16 0.12 -0.16 0.32 l0.32 -0.2 c0 -0.04 -0.12 -0.08 -0.16 -0.12 z M100.244 39.08 c-0.04 0 -0.08 0.04 -0.08 0.04 c0 0.04 0.04 0.04 0.08 0.04 s0.04 0 0.04 -0.04 c0 0 0 -0.04 -0.04 -0.04 z M78.284 38.96 l0 0.12 l0.08 -0.12 l-0.08 0 z M78.404 38.36 c0 0.04 0.04 0.6 0.4 0.6 c-0.08 -0.04 -0.2 -0.4 -0.2 -0.6 l0.08 -0.24 l-0.08 -0.08 c-0.16 0 -0.2 0.24 -0.2 0.32 z M79.884 36.48 c-0.12 0.08 -0.28 0.32 -0.28 0.64 c0.04 0.04 0.08 0.04 0.08 0.04 c0.16 0 0.2 -0.24 0.24 -0.36 c0 -0.04 -0.04 -0.36 -0.04 -0.32 z M79.684 35.44 c0 -0.04 -0.04 -0.04 -0.04 -0.04 c-0.04 0 -0.04 0 -0.04 0.04 s0 0.04 0.04 0.04 c0 0 0.04 0 0.04 -0.04 z M80.804 32.56 c-0.04 0 -0.08 0.04 -0.08 0.04 s0.04 0.04 0.08 0.04 l0.04 -0.04 z M92.164 32 c-0.04 0 -0.04 0.04 -0.04 0.08 s0 0.08 0.04 0.08 s0.04 -0.04 0.04 -0.08 s0 -0.08 -0.04 -0.08 z M81.164 31.68 c-0.04 0 -0.04 0.04 -0.04 0.08 s0 0.08 0.04 0.08 s0.04 -0.04 0.04 -0.08 s0 -0.08 -0.04 -0.08 z M81.164 30.84 c-0.04 0 -0.04 0.04 -0.04 0.04 c0 0.04 0 0.04 0.04 0.04 s0.04 0 0.04 -0.04 c0 0 0 -0.04 -0.04 -0.04 z M83.004 29.2 c0.12 0.48 0.16 0.52 0.44 0.68 c0.48 0 1.8 -0.08 5.44 -0.08 c0.32 0 0.48 0.12 1.28 0.12 c0.4 0 0.8 -0.12 0.8 -0.56 c0 -0.2 -0.52 -0.96 -0.52 -1.36 l0.04 0 c0 -0.08 -0.44 -0.44 -0.44 -0.88 c0 -1.48 -0.76 -1.32 -0.76 -2.24 c0.04 0.04 0.04 0.08 0.04 0.08 c-0.04 0 -0.76 -1.32 -0.76 -2.08 c0 -0.52 -0.72 -1.28 -0.72 -2.16 l0.04 0 c0 -0.08 -0.44 -0.48 -0.44 -0.96 c-0.36 -0.84 -0.4 -0.76 -0.72 -0.76 c-1.16 2.76 -1.08 2.8 -1.44 3.48 c0 -0.08 -0.04 1.28 -0.56 1.48 l0 -0.08 c-0.04 0 -0.44 2.28 -0.84 2.64 c0 0.52 -0.88 1.2 -0.88 2.68 z M82.20400000000001 28.08 c-0.04 0 -0.08 0.04 -0.08 0.08 s0.04 0.08 0.08 0.08 s0.04 -0.04 0.04 -0.08 s0 -0.08 -0.04 -0.08 z M83.124 25.439999999999998 c-0.04 0 -0.08 0.04 -0.08 0.08 c0 0 0.04 0.04 0.08 0.04 l0 -0.12 z M84.804 23.08 l0 0.04 l0.04 0 z M84.644 22.44 c-0.04 0 -0.08 0.04 -0.08 0.08 l0.08 0 l0.04 0 c0 -0.04 0 -0.08 -0.04 -0.08 z M84.804 21.4 c-0.04 0 -0.08 0.04 -0.08 0.04 c0 0.04 0.04 0.08 0.08 0.08 c0 0 0.04 -0.04 0.04 -0.08 z M85.884 18.68 c0 -0.04 -0.04 -0.04 -0.04 -0.04 c-0.04 0 -0.04 0 -0.04 0.04 s0 0.08 0.04 0.08 c0 0 0.04 -0.04 0.04 -0.08 z M86.004 18.56 l-0.04 0 c0 0.04 0.04 0.04 0.04 0.04 s0.04 0 0.04 -0.04 l-0.04 0 z M90.364 15.760000000000002 c-0.04 0 -0.04 0.04 -0.04 0.08 s0 0.08 0.04 0.08 s0.04 -0.04 0.04 -0.08 s0 -0.08 -0.04 -0.08 z M89.604 10.2 c0 0 -0.04 0.04 -0.04 0.08 l0.08 0 c0 -0.04 0 -0.08 -0.04 -0.08 z M88.56400000000001 10.120000000000001 c-0.04 0 -0.04 0.04 -0.04 0.08 s0 0.08 0.04 0.08 s0.04 -0.04 0.04 -0.08 s0 -0.08 -0.04 -0.08 z M88.884 10.120000000000001 l0.16 0.08 c0.32 0 0.2 0 0.32 -0.08 l-0.12 -0.16 c-0.16 0 -0.24 0.16 -0.36 0.16 z M130.032 40.44 c-0.08 -0.08 -0.32 -0.24 -0.4 -0.32 c0.08 0 -0.92 -0.92 -0.92 -1.36 c0 -0.16 -0.88 -1.04 -0.88 -1.44 c0 -0.36 -1.16 -0.92 -1.16 -1.72 c-0.56 -1.2 -0.96 -1.2 -1.04 -1.6 c0.04 0 0.08 0 0.08 -0.04 s-0.96 -0.72 -0.76 -1.12 c0 0 -0.04 0.04 -0.08 0.04 c-0.08 0 -0.28 -0.16 -0.88 -1.4 c0 -0.24 -0.84 -0.6 -1 -1.44 c-0.76 -0.52 -0.08 -0.84 -1.68 -2.44 c-0.52 -0.4 0.4 0.36 -1.4 -2.16 c0 -0.08 0 -0.12 0.08 -0.2 c0 -0.08 -0.08 -0.08 -0.28 -0.08 l0 -0.04 c0 -0.2 -0.6 -0.48 -0.6 -0.84 c0 -0.16 -0.36 -0.92 -1 -1.56 c-0.04 0.04 -0.04 0.08 -0.04 0.08 l0 0 s0.04 -0.04 0.04 -0.08 c0 -0.16 -0.16 -0.56 -1.04 -1.52 c0 -0.52 -0.76 -0.68 -0.96 -1.52 c0 -0.16 -1.2 -1.16 -1.24 -1.84 l0 -0.04 c0 -0.24 -0.68 -0.64 -1 -1.44 c0 -0.52 -0.84 -0.76 -0.84 -1.44 c-0.2 0 -0.32 -0.72 -1.36 -1.8 c-0.2 0.04 -0.52 0.2 -0.52 0.36 l0 1.52 c0 0.08 0.04 0.2 0.04 0.28 c0 0.04 -0.04 1.28 -0.04 1.44 c0 1.36 0.04 1.68 0.04 2.08 c0 2.12 -0.04 2.64 -0.04 3.32 c0 1.36 0.12 2.52 0.12 3.96 c0 0.04 -0.08 0.16 -0.08 0.72 l0 11.64 c0.12 0.12 0.32 0.4 0.48 0.4 l2.84 0 c0.4 0 0.92 0.24 0.92 0.8 c0 0.36 -0.28 0.44 -0.6 0.44 l-2.68 0 l-0.48 -0.16 l0.16 0 l-0.24 -0.24 l0 0.32 c-0.28 0.04 -2.64 0.12 -2.64 0.12 c-0.04 0 -0.12 0 -0.2 -0.04 c0.08 -0.04 0.16 -0.08 0.2 -0.16 c-0.32 0 -0.32 0.04 -0.44 0.16 l-0.76 0 l-0.08 -0.08 l0.08 -0.08 l-0.08 -0.08 c-0.08 0.04 -0.4 0.08 -0.4 0.16 l0.08 0.08 c-0.28 0.08 -0.44 0.04 -0.8 0.04 s-0.88 -0.04 -0.88 -0.52 c0 -0.88 1.48 -0.92 2.56 -0.92 l0.16 0.08 l1 0 l0.04 0 c0.36 0 0.36 -1.68 0.36 -2.44 c0 -6.28 -0.16 -7.76 -0.16 -20.56 c0.16 -0.48 0.16 -2.24 0.16 -3.16 c0 -0.88 -0.12 -1.48 -1.28 -1.48 c-1.32 0.08 -0.96 0.32 -1.72 0.32 c-0.56 0 -1.28 -0.2 -1.28 -0.88 c0 -0.44 0.76 -1.04 1.2 -1.04 c1.16 0 -0.12 0.4 3.12 0.4 c0.36 0 0.72 -0.12 0.92 -0.12 c0.6 0 1.2 0.12 1.76 0.12 c0.32 0 0.6 -0.04 0.76 -0.12 c0.12 0.08 0.48 0.08 0.6 0.08 l2.04 0 c0.96 0 1.88 1.96 1.92 1.96 c0.12 0 1.36 2.08 1.36 2.28 c0 0 3.24 4.84 4.12 6.16 l0 0.04 c0 0.08 0.6 0.44 0.6 0.88 l-0.04 0 l-0.04 0 c0 0.12 0.84 0.76 0.84 1.08 c1.12 1.48 0.52 1.36 1.68 2.52 l0.56 1.16 c0.04 0.12 0.92 0.92 0.92 1.36 c0.48 0.04 0.72 1.8 1.4 1.84 c0.16 0 0.4 0 0.4 -0.2 l0 -3.2 c0 -0.04 0.08 -0.28 0.08 -0.32 c0 -0.44 -0.08 -0.68 -0.08 -1.04 c0 -1.28 -0.08 -8.12 -0.08 -12.48 c-0.08 -0.36 -0.24 -0.64 -0.44 -0.8 c-1.4 0 -1.44 0.08 -1.84 0.08 c-1.32 0 -1.64 0.08 -1.64 -0.84 c0 -0.48 0.56 -0.56 1.44 -0.56 c0.68 0 1.76 0.04 3.12 0.16 c0.12 0 0.48 -0.08 0.6 -0.08 c0.16 0 0.48 0.08 0.72 0.08 c0.96 -0.08 1.88 -0.16 2.56 -0.16 c0.04 0.08 0.76 0.24 0.84 0.48 l0 0.68 c-0.04 0.16 -0.72 0.24 -0.92 0.24 c-0.44 0 -1 -0.08 -1.44 -0.08 c-1.32 0.32 -1.56 -0.36 -1.56 1.12 l0 5.96 c0 0.4 0.04 0.56 0.04 1.24 c0 0.84 0 5.8 -0.12 6 c0 -0.08 0.08 3.96 0.08 4.52 c0 1.6 -0.08 1.44 -0.08 1.72 c0 0.2 0.12 0.88 0.12 1.12 l0 -0.12 c0 0 -0.12 0.52 -0.12 3 c0 1.56 0.12 3.24 0.12 3.92 c0 0.28 -0.08 0.44 -0.56 0.96 c0 0.04 0 0.08 -0.04 0.08 s-0.12 -0.2 -0.4 -0.2 z M130.032 40.08 l0 0.04 l0.12 0 z M106.31200000000001 39.92 c0.04 0.04 0.04 0.08 0.12 0.08 c-0.04 -0.08 -0.12 -0.08 -0.12 -0.08 z M106.912 39.92 c-0.08 0 -0.12 0.04 -0.16 0.08 l0.08 0 s0.08 0 0.12 -0.08 l-0.04 0 z M107.912 39.92 l0.08 0.08 c0.08 0 0.4 -0.24 0.4 -0.64 l-0.24 0 c0 0.24 0.04 0.4 -0.24 0.56 z M109.39200000000001 39.92 c0 -0.04 -0.04 -0.04 -0.08 -0.04 c0 0 -0.04 0 -0.04 0.04 s0.04 0.08 0.04 0.08 c0.04 0 0.08 -0.04 0.08 -0.08 z M112.87200000000001 39.84 c0 0 -0.04 0.04 -0.04 0.08 s0.04 0.08 0.04 0.08 c0.04 0 0.04 -0.04 0.04 -0.08 s0 -0.08 -0.04 -0.08 z M113.39200000000001 39.84 l0 0.08 l0.08 0 l0 -0.08 l-0.08 0 z M114.95200000000001 39.84 c-0.04 0 -0.08 0.04 -0.08 0.08 s0.04 0.08 0.08 0.08 s0.04 -0.04 0.04 -0.08 s0 -0.08 -0.04 -0.08 z M108.47200000000001 39.8 c-0.04 0 -0.08 0 -0.08 0.04 l0.12 0 c0 -0.04 -0.04 -0.04 -0.04 -0.04 z M114.19200000000001 39.76 c-0.08 0 -0.12 0 -0.16 0.04 z M106.03200000000001 39.52 l0 0.08 l0 -0.12 l0 0.04 z M106.03200000000001 39.36 c0.08 0.04 0.2 0.04 0.28 0.16 c0.08 0 0.24 -0.12 0.28 -0.24 l-0.56 0 l0 0.08 z M115.072 39.28 l0 0.2 l0.08 0 c0 -0.08 0 -0.16 -0.08 -0.2 z M114.83200000000001 39.16 c-0.08 0 -0.24 0.04 -0.24 0.16 c0 0.04 0.04 0.04 0.04 0.08 c0.12 0 0.2 -0.08 0.2 -0.24 z M110.31200000000001 38.68 c0 0.08 0.04 0.16 0.12 0.16 s0.28 -0.08 0.28 -0.08 l0 -0.08 l-0.4 0 z M110.83200000000001 38.12 l0 0.24 l0.04 0 c0 -0.04 0 -0.12 -0.04 -0.24 z M110.43200000000002 36.4 c-0.12 0 -0.12 0.12 -0.12 0.12 l0.12 -0.12 l0 0 z M110.31200000000001 34.28 c-0.04 0 -0.04 0.04 -0.04 0.08 l0.08 0 c0 -0.04 0 -0.08 -0.04 -0.08 z M110.71200000000002 33.68 l0 0.04 l0.04 0 z M125.552 33.72 l-0.04 0 l0.04 0 z M110.43200000000002 32.32 l0.16 0.16 c0 -0.04 0.04 -0.08 0.04 -0.12 s-0.08 -0.12 -0.2 -0.16 c-0.2 0 -0.24 0 -0.32 0.04 c0 0.12 0.04 0.12 0.08 0.16 c0.08 -0.04 0.16 -0.08 0.24 -0.08 z M110.75200000000001 31.36 l0.08 0.08 c0.04 -0.04 0.04 -0.08 0.04 -0.16 c0 0 -0.08 0.04 -0.12 0.08 z M110.19200000000001 30.36 c-0.04 0 -0.08 0.04 -0.08 0.04 s0.04 0.04 0.08 0.04 s0.04 -0.04 0.04 -0.04 s0 -0.04 -0.04 -0.04 z M110.11200000000001 26.36 c-0.04 0 -0.08 0.04 -0.08 0.08 l0.08 0 l0.04 0 c0 -0.04 0 -0.08 -0.04 -0.08 z M110.11200000000001 26.04 l0 0.16 c0 0.04 0.04 0.04 0.04 0.04 c0.08 0 0.12 -0.2 0.12 -0.2 l-0.16 0 z M110.11200000000001 24.92 c-0.04 0 -0.08 0.04 -0.08 0.04 c0 0.04 0.04 0.04 0.08 0.04 s0.04 0 0.04 -0.04 c0 0 0 -0.04 -0.04 -0.04 z M110.11200000000001 18.6 c-0.04 0 -0.08 0.04 -0.08 0.08 s0.04 0.08 0.08 0.08 s0.04 -0.04 0.04 -0.08 s0 -0.08 -0.04 -0.08 z M110.03200000000001 18.44 c-0.04 0 -0.04 0.04 -0.04 0.08 l0.08 0 c0 -0.04 0 -0.08 -0.04 -0.08 z M131.232 10.96 c0 0 -0.04 0 -0.04 0.04 s0.04 0.08 0.04 0.08 c0.04 0 0.04 -0.04 0.04 -0.08 s0 -0.04 -0.04 -0.04 z M132.15200000000002 10.84 c0 0.12 0.12 0.12 0.16 0.12 l0.16 -0.52 c0.2 0 0.36 0.16 0.6 0.16 c0.04 0 0.08 0 0.08 -0.16 c0 -0.2 -0.32 -0.2 -0.56 -0.2 l0.04 0 s-0.52 0.24 -0.52 0.52 c0 0 0 0.04 0.04 0.08 z M134.192 10.2 l-0.04 -0.04 c0 0.08 0.24 0.64 0.24 0.8 c0.04 0 0.2 0 0.2 -0.48 c0 -0.32 -0.36 -0.24 -0.4 -0.28 z M131.67200000000003 10.84 c-0.04 0 -0.04 0.04 -0.04 0.08 c0 0 0 0.04 0.04 0.04 s0.04 -0.04 0.04 -0.04 c0 -0.04 0 -0.08 -0.04 -0.08 z M131.632 10.760000000000002 c-0.04 0 -0.04 0.04 -0.04 0.04 c0 0.04 0 0.04 0.04 0.04 c0 0 0.04 0 0.04 -0.04 z M108.31200000000001 10.559999999999999 c-0.04 0 -0.04 0.04 -0.04 0.04 c0 0.04 0.12 0.12 0.2 0.16 l0 -0.2 l-0.16 0 z M110.632 10.559999999999999 c0.04 0.04 0.08 0.16 0.08 0.16 c0.04 0 0.04 0 0.04 -0.04 l0 -0.24 l0 0 l-0.04 0 c0 0 -0.04 0.04 -0.08 0.12 z M106.03200000000001 10.36 l0 0.16 c0.08 -0.08 0.16 -0.12 0.16 -0.24 c0 -0.04 -0.08 -0.04 -0.12 -0.04 s-0.04 0.04 -0.04 0.04 l0 0.08 z M109.632 10.36 c0 0.08 0 0.12 0.08 0.16 c0.04 -0.04 0.08 -0.08 0.08 -0.16 l-0.16 0 z M129.192 10.36 l0 0.16 l0.04 0 z M130.192 10.280000000000001 l0 0.24 c0.12 0 0.16 -0.16 0.16 -0.24 l-0.16 0 z M130.512 10.280000000000001 c0 0.16 0.04 0.24 0.12 0.24 c0.04 0 0.04 0 0.04 -0.04 c0 -0.12 -0.08 -0.2 -0.12 -0.2 l-0.04 0 z M126.47200000000001 10.239999999999998 l-0.04 0.04 s0.16 0.16 0.28 0.16 c0 0 0.04 0 0.2 -0.16 c0 -0.04 -0.32 -0.04 -0.44 -0.04 z M133.55200000000002 10.280000000000001 c-0.12 0 -0.12 0.08 -0.12 0.2 c0.04 0 0.12 -0.12 0.2 -0.2 l-0.08 0 z M107.51200000000001 10.280000000000001 c0.04 0.08 0.04 0.12 0.08 0.12 s0.04 -0.04 0.08 -0.04 l0 -0.08 l-0.16 0 z M126.15200000000002 10.239999999999998 l0 0.04 l0.04 0 z M135.70000000000002 40.16 c-0.44 0 -0.44 0.04 -0.72 0.04 c-0.08 0 -0.44 -0.32 -0.56 -0.44 c0 0 0.08 -0.6 0.08 -0.72 c1.44 -0.12 2.48 -0.16 3.6 -0.28 c0.12 0 0 -0.76 0.44 -0.76 l0 -0.64 c0.04 0.04 0.08 0.04 0.08 0.04 c0.24 0 0.2 -1.12 0.52 -1.2 c0 -0.08 0.16 -1.44 0.56 -1.76 l0.2 -0.76 s1.36 -4.64 1.88 -4.64 c0.04 0 0.12 0.04 0.16 0.04 c0.2 0 0.24 -0.08 0.24 -0.16 c0 -0.36 -0.32 -0.2 -0.32 -0.48 c0 -0.72 0.72 -2.08 0.8 -2.16 c0.04 -1.64 0.64 -1.24 0.64 -2.28 l0 0.04 c0.04 0 0.36 -1 0.52 -1.12 c0 0.08 0.04 0.08 0.04 0.08 s-0.04 0 -0.04 -0.04 c0 -0.24 0.8 -1.88 0.8 -2.32 c0.2 0 0.24 -0.04 0.24 -0.12 s-0.04 -0.16 -0.04 -0.28 c0 -0.24 0.08 -0.48 0.36 -0.8 l0 0.04 c0.08 0 0.04 -0.88 0.36 -0.88 l0.16 -0.76 l0.24 -0.2 l0 -0.64 l0.32 -0.24 l0 -0.68 s0.24 -0.08 0.24 -0.16 c-0.04 0 -0.08 -0.08 -0.08 -0.12 c0 -0.52 1 -2.04 1 -3.08 l0.2 -0.16 l0 -0.64 c0 0.04 0.04 0.04 0.04 0.04 c0.56 0 -0.2 -2.32 1.88 -2.32 c0.16 0 0.88 0.44 0.88 1.04 c0.16 0.16 -0.16 0.56 0.56 1.88 c0.04 0 1 2.6 1 3.28 c0.36 0 0.12 0.8 1.04 2.72 c0.24 1.08 0.68 1.04 0.68 1.52 l0 -0.04 s0.2 1.28 0.36 1.28 l-0.04 0 c0 0.16 0.96 1.2 0.96 2.44 c0.24 1.16 0.64 0.68 0.64 1.68 l-0.04 -0.04 c0 0.08 0.64 0.92 0.64 1.44 c-0.04 0 -0.08 0 -0.08 0.04 c0 0.16 0.44 0.72 0.44 0.92 c0 0.04 -0.04 0.04 -0.04 0.08 c0 0.08 0.4 0.4 0.4 1.12 c0.16 1.4 0.84 1.48 0.84 2.36 c-0.04 0.08 -0.08 0.12 -0.08 0.16 c0 0.2 0.64 0.2 0.64 1.12 c0 2.28 1.56 2.8 1.56 4.4 c0.16 1.28 0.92 1.72 1.04 1.8 l2.6 0 c0.16 0 0.4 0.12 0.52 0.2 l0 0.72 c-0.16 0.08 -0.28 0.24 -0.92 0.24 c-0.08 0 -2 -0.08 -2.8 -0.08 c-0.36 0 -0.68 0.08 -1 0.08 c-0.04 0 -0.68 -0.08 -0.76 -0.08 c-2.16 0 -3.52 0.12 -4.36 0.12 c-0.04 0 -0.04 -0.12 -0.68 -0.12 c-0.32 0 -0.4 0 -0.56 0.08 c-0.2 0 -0.36 -0.08 -0.44 -0.2 c-0.08 0 -0.24 0.04 -0.24 0.04 l0.08 0.08 l-0.08 0.08 c-1.32 0 -1.44 0 -1.72 -0.24 l0.08 -0.68 c0 -0.08 0.28 -0.24 0.44 -0.24 l3 0 c0.04 0.04 0.32 -0.2 0.32 -0.4 c0 -0.08 -0.64 -0.92 -0.64 -1.4 c0.08 -0.04 0.08 -0.04 0.08 -0.12 c0 -0.2 -0.68 -0.72 -0.68 -1.76 c0.04 0 0.04 0 0.04 -0.04 c0 -0.08 -0.44 -0.4 -0.44 -0.72 c0 -1.44 -0.64 -1.44 -0.64 -2.52 l0 0.04 c-0.08 0 -0.44 -1 -0.8 -1 c-2.68 0 -5.52 0.08 -8.76 0.08 c0 0.16 -0.32 0.24 -0.32 0.68 c-0.6 1.32 -0.68 1.12 -0.68 1.76 c-0.48 0.32 0.04 0.56 -0.52 1.24 c-0.32 2.2 -0.76 0.96 -0.76 2.44 l0 -0.04 c-0.08 0 -0.44 1.04 -0.48 1.04 c0 0.64 0.16 0.64 0.4 0.8 l3.2 0 c0.2 0 0.6 0.04 0.6 0.52 s-0.12 0.72 -0.84 0.72 c-0.12 0 -0.28 -0.08 -0.48 -0.08 c-0.44 0 -0.6 0.08 -0.8 0.08 c-0.08 0 -0.28 -0.08 -0.32 -0.08 l-2.84 0 c-0.08 0.08 -0.16 0.08 -0.24 0.08 c-0.12 0 -0.32 -0.04 -0.48 -0.16 c0 0 0.08 -0.08 0.08 -0.16 l-0.12 0 c-0.08 0 -0.12 0 -0.12 0.08 l0.04 0.08 c-0.04 0.16 -0.08 0.16 -0.32 0.16 c0 -0.52 0 -0.4 0.12 -0.56 c-0.04 -0.16 0.04 -0.36 -0.08 -0.44 c0 0.28 -0.12 0.48 -0.36 0.64 c0 0.08 0.12 0.16 0.2 0.2 c-0.16 0 -0.6 0.2 -0.68 0.32 c-0.72 0 -0.64 -0.16 -1.08 -0.16 z M135.38000000000002 39.84 l0 0.08 l0.2 0 c-0.12 -0.08 -0.16 -0.08 -0.2 -0.08 z M136.06000000000003 39.92 c0 -0.04 -0.04 -0.04 -0.08 -0.04 s-0.08 0 -0.08 0.04 s0.04 0.08 0.08 0.08 s0.08 -0.04 0.08 -0.08 z M136.30000000000004 39.84 c-0.04 0 -0.08 0.04 -0.08 0.08 s0.04 0.08 0.08 0.08 s0.04 -0.04 0.04 -0.08 s0 -0.08 -0.04 -0.08 z M137.18000000000004 39.76 c-0.24 0 -0.56 0.08 -0.64 0.16 c0.68 0 0.48 -0.04 0.64 -0.16 z M138.50000000000003 39.8 c0 0.04 0.32 0.08 0.36 0.12 l0.08 -0.08 c-0.2 -0.04 -0.4 -0.04 -0.44 -0.04 z M141.46000000000004 39.84 c0.52 0 1.32 0.08 1.52 0.08 c-0.44 0 -0.44 -0.44 -0.48 -0.64 c0.04 0 -0.32 0.08 -0.32 0.32 c-0.08 0 -0.04 -0.24 -0.36 -0.24 c0 0.28 -0.16 0.36 -0.36 0.48 z M143.30000000000004 39.84 l0.08 0.08 c0.04 0 0.28 -0.08 0.36 -0.08 l-0.44 0 z M137.78000000000003 39.8 c-0.04 0 -0.08 0.04 -0.08 0.08 c0 0 0.04 0.04 0.08 0.04 s0.04 -0.04 0.04 -0.04 c0 -0.04 0 -0.08 -0.04 -0.08 z M140.94000000000003 39.84 c0 0 -0.08 -0.04 -0.12 -0.04 c-0.08 0 -0.08 0.04 -0.08 0.04 c0 0.04 0 0.08 0.08 0.08 c0.04 0 0.12 -0.04 0.12 -0.08 z M150.78000000000003 39.76 c0.04 0.04 0.16 0.08 0.2 0.08 s0.24 -0.04 0.32 -0.08 l0 -0.48 s-0.08 -0.04 -0.12 -0.04 c-0.36 0 -0.4 0.08 -0.4 0.24 l0 0.28 z M161.62000000000003 39.8 c0.12 0 0.16 0.04 0.36 0.04 c0.04 0 0.24 -0.04 0.36 -0.04 l-0.72 0 z M163.54000000000002 39.8 l0 0.04 l0.04 -0.04 l-0.04 0 z M151.90000000000003 39.76 l-0.08 0.04 l0.12 0.04 z M154.90000000000003 39.76 c-0.04 0 -0.08 0.04 -0.08 0.04 s0.04 0.04 0.08 0.04 s0.04 -0.04 0.04 -0.04 s0 -0.04 -0.04 -0.04 z M160.38000000000002 39.76 c0.04 0.04 0.08 0.04 0.2 0.04 l0.76 0 c-0.04 -0.04 -0.12 -0.08 -0.2 -0.12 c-0.08 0.08 -0.2 0.08 -0.24 0.08 c-0.36 0 -0.28 -0.28 -0.36 -0.28 z M134.74000000000004 39.48 c0 0.24 0 0.2 0.08 0.28 l0.52 0 l0 -0.68 c-0.56 0.28 -0.6 0.16 -0.6 0.4 z M143.18000000000004 39.56 l0 0.2 c0.08 0 0.12 -0.08 0.12 -0.08 c-0.04 -0.24 -0.16 -0.24 -0.16 -0.44 c-0.16 0 -0.24 0.08 -0.24 0.12 c0.04 0.08 0.08 0.2 0.28 0.2 z M162.74000000000004 39.68 c-0.04 0 -0.04 0.04 -0.04 0.08 s0 0.04 0.04 0.04 s0.04 0 0.04 -0.04 s0 -0.08 -0.04 -0.08 z M135.82000000000002 39.24 c0 0.32 -0.04 0.4 -0.12 0.44 c0.24 0 0.44 0 0.44 -0.24 s-0.04 -0.2 -0.32 -0.2 z M140.06000000000003 39.6 l0 0.08 l0.08 0 z M140.78000000000003 39.44 l0.08 0.04 l0 -0.12 z M143.38000000000002 39.16 c0 0.04 0 0.12 0.04 0.12 c0 0 0.16 0 0.16 -0.12 c0 -0.08 -0.08 -0.08 -0.16 -0.12 c-0.04 0.04 -0.04 0.08 -0.04 0.12 z M161.66000000000003 39.24 c0 0.04 0.08 0.04 0.12 0.04 c0 -0.2 0 -0.2 -0.08 -0.24 c0 0 -0.04 0.12 -0.04 0.2 z M163.42000000000002 38.96 c-0.2 0.04 -0.16 0.12 -0.16 0.32 l0.32 -0.2 c0 -0.04 -0.12 -0.08 -0.16 -0.12 z M160.38000000000002 39.08 c-0.04 0 -0.08 0.04 -0.08 0.04 c0 0.04 0.04 0.04 0.08 0.04 s0.04 0 0.04 -0.04 c0 0 0 -0.04 -0.04 -0.04 z M138.42000000000002 38.96 l0 0.12 l0.08 -0.12 l-0.08 0 z M138.54000000000002 38.36 c0 0.04 0.04 0.6 0.4 0.6 c-0.08 -0.04 -0.2 -0.4 -0.2 -0.6 l0.08 -0.24 l-0.08 -0.08 c-0.16 0 -0.2 0.24 -0.2 0.32 z M140.02000000000004 36.48 c-0.12 0.08 -0.28 0.32 -0.28 0.64 c0.04 0.04 0.08 0.04 0.08 0.04 c0.16 0 0.2 -0.24 0.24 -0.36 c0 -0.04 -0.04 -0.36 -0.04 -0.32 z M139.82000000000002 35.44 c0 -0.04 -0.04 -0.04 -0.04 -0.04 c-0.04 0 -0.04 0 -0.04 0.04 s0 0.04 0.04 0.04 c0 0 0.04 0 0.04 -0.04 z M140.94000000000003 32.56 c-0.04 0 -0.08 0.04 -0.08 0.04 s0.04 0.04 0.08 0.04 l0.04 -0.04 z M152.3 32 c-0.04 0 -0.04 0.04 -0.04 0.08 s0 0.08 0.04 0.08 s0.04 -0.04 0.04 -0.08 s0 -0.08 -0.04 -0.08 z M141.30000000000004 31.68 c-0.04 0 -0.04 0.04 -0.04 0.08 s0 0.08 0.04 0.08 s0.04 -0.04 0.04 -0.08 s0 -0.08 -0.04 -0.08 z M141.30000000000004 30.84 c-0.04 0 -0.04 0.04 -0.04 0.04 c0 0.04 0 0.04 0.04 0.04 s0.04 0 0.04 -0.04 c0 0 0 -0.04 -0.04 -0.04 z M143.14000000000001 29.2 c0.12 0.48 0.16 0.52 0.44 0.68 c0.48 0 1.8 -0.08 5.44 -0.08 c0.32 0 0.48 0.12 1.28 0.12 c0.4 0 0.8 -0.12 0.8 -0.56 c0 -0.2 -0.52 -0.96 -0.52 -1.36 l0.04 0 c0 -0.08 -0.44 -0.44 -0.44 -0.88 c0 -1.48 -0.76 -1.32 -0.76 -2.24 c0.04 0.04 0.04 0.08 0.04 0.08 c-0.04 0 -0.76 -1.32 -0.76 -2.08 c0 -0.52 -0.72 -1.28 -0.72 -2.16 l0.04 0 c0 -0.08 -0.44 -0.48 -0.44 -0.96 c-0.36 -0.84 -0.4 -0.76 -0.72 -0.76 c-1.16 2.76 -1.08 2.8 -1.44 3.48 c0 -0.08 -0.04 1.28 -0.56 1.48 l0 -0.08 c-0.04 0 -0.44 2.28 -0.84 2.64 c0 0.52 -0.88 1.2 -0.88 2.68 z M142.34000000000003 28.08 c-0.04 0 -0.08 0.04 -0.08 0.08 s0.04 0.08 0.08 0.08 s0.04 -0.04 0.04 -0.08 s0 -0.08 -0.04 -0.08 z M143.26000000000002 25.439999999999998 c-0.04 0 -0.08 0.04 -0.08 0.08 c0 0 0.04 0.04 0.08 0.04 l0 -0.12 z M144.94000000000003 23.08 l0 0.04 l0.04 0 z M144.78000000000003 22.44 c-0.04 0 -0.08 0.04 -0.08 0.08 l0.08 0 l0.04 0 c0 -0.04 0 -0.08 -0.04 -0.08 z M144.94000000000003 21.4 c-0.04 0 -0.08 0.04 -0.08 0.04 c0 0.04 0.04 0.08 0.08 0.08 c0 0 0.04 -0.04 0.04 -0.08 z M146.02000000000004 18.68 c0 -0.04 -0.04 -0.04 -0.04 -0.04 c-0.04 0 -0.04 0 -0.04 0.04 s0 0.08 0.04 0.08 c0 0 0.04 -0.04 0.04 -0.08 z M146.14000000000001 18.56 l-0.04 0 c0 0.04 0.04 0.04 0.04 0.04 s0.04 0 0.04 -0.04 l-0.04 0 z M150.50000000000003 15.760000000000002 c-0.04 0 -0.04 0.04 -0.04 0.08 s0 0.08 0.04 0.08 s0.04 -0.04 0.04 -0.08 s0 -0.08 -0.04 -0.08 z M149.74000000000004 10.2 c0 0 -0.04 0.04 -0.04 0.08 l0.08 0 c0 -0.04 0 -0.08 -0.04 -0.08 z M148.70000000000002 10.120000000000001 c-0.04 0 -0.04 0.04 -0.04 0.08 s0 0.08 0.04 0.08 s0.04 -0.04 0.04 -0.08 s0 -0.08 -0.04 -0.08 z M149.02000000000004 10.120000000000001 l0.16 0.08 c0.32 0 0.2 0 0.32 -0.08 l-0.12 -0.16 c-0.16 0 -0.24 0.16 -0.36 0.16 z M191.35600000000005 40.12 l-4.12 -0.12 l-0.08 0.04 l0.16 -0.24 c-0.04 -0.04 -0.08 -0.08 -0.12 -0.08 c-0.08 0 -0.16 0.28 -0.28 0.4 l-2.36 0 c-0.16 -0.28 -0.4 -0.44 -0.4 -0.64 c0 -0.12 0.08 -0.28 0.08 -0.36 c0.16 -0.24 -0.24 -0.48 2.28 -0.48 c0.24 0 0.52 0.08 0.8 0.08 c0.4 0 0.8 -0.16 0.88 -0.84 c0 -1.36 -0.04 -2.56 -0.04 -3.96 c0 -0.72 0.04 -1.68 0.04 -2.48 c0 -1.72 0 -3.32 -0.12 -4.56 c0 -0.84 0.12 -2.96 0.12 -7 c0 -0.16 -0.04 -0.48 -0.04 -0.64 c0 -0.36 0.04 -0.4 0.04 -0.88 c0 -0.36 -0.08 -0.76 -0.08 -1.12 c0 -0.28 0.04 -0.48 0.08 -0.64 c0 -0.04 -0.04 -0.24 -0.04 -0.44 s0 -0.28 0.04 -0.44 l0 -4.44 l-0.24 -0.16 l-2.12 0 c-0.12 0.08 -0.36 0.08 -0.6 0.08 c-0.16 0 -0.44 0.04 -0.44 -0.04 c0 -0.04 -0.64 0.12 -0.64 -0.72 c0.24 -0.64 0.16 -0.56 0.64 -0.8 c4.92 0 4.48 0.08 5.8 0.08 c0.48 0 3.84 -0.08 4.76 -0.08 l0.24 0.08 l2.44 0 c0.36 0.12 0.36 0.36 0.48 0.64 c0 0.36 0.04 0.64 -0.48 0.76 c-0.48 0 -1.48 -0.08 -2.48 -0.08 c-1.56 0 -1.16 0.32 -1.44 0.88 l0 11 c0 0.12 -0.08 0.84 -0.08 0.96 c0 0.08 0.08 0.2 0.08 0.28 l0 2.32 c0 0.04 0.08 0.32 0.08 0.4 l-0.08 0.16 l0 6.76 c0 0.12 0.08 0.28 0.08 0.32 s-0.04 0.12 -0.08 0.28 l0 2.68 l-0.08 0.2 c0 1.12 0.12 1.24 0.64 1.44 c0.64 0 1.84 0.08 3 0.08 c1.48 0 2.88 -0.12 3.2 -0.56 c-0.08 0 0.88 -0.04 1.16 -0.44 c0.16 0.04 0.52 -0.72 1.12 -0.72 c1.04 -1.24 -0.2 0.2 1.56 -1.56 c-0.04 0 -0.08 0 -0.08 -0.04 c0 -0.12 0.84 -0.6 0.84 -1.04 c-0.08 0 1.12 -2 1.12 -2.36 c0 -1.24 0.72 -1.92 1.04 -2.08 c0.72 0.04 1.16 -0.56 1.16 1.56 c0 1.52 -0.2 3.52 -0.36 3.48 c0 0.08 0.04 0.2 0.12 0.32 c0 0.04 -0.16 1.08 -0.16 3.52 c0 0.96 -0.32 0.64 -0.6 1.24 c-2.24 0 -2.24 -0.12 -3.24 -0.12 c-0.48 0 -1.2 0.12 -1.4 0.12 l-2.68 -0.08 c-0.56 0 -1.24 -0.04 -1.56 -0.04 c0.04 0 -0.72 0.08 -1.16 0.08 c-0.2 0 -0.32 -0.04 -0.4 -0.16 c-0.04 0 -0.76 0.16 -0.84 0.2 c0 0 -0.04 -0.08 -0.4 -0.08 c-0.2 0 -0.76 0.08 -1.28 0.08 c-0.28 0 -0.32 -0.08 -0.56 -0.08 c-0.08 0 -1.56 0.16 -2.08 0.16 c-0.12 0 -0.72 -0.08 -0.84 -0.08 z M184.95600000000005 39.44 c-0.08 0 -0.08 0.48 -0.08 0.56 l0.08 0 l0 -0.56 z M186.27600000000004 39.44 c0 0.08 0.16 0.4 0.32 0.56 c0.08 -0.08 0.16 -0.44 0.2 -0.4 c0 -0.04 -0.24 -0.16 -0.44 -0.16 l-0.08 0 z M186.11600000000004 39.84 c-0.04 0 -0.04 0.04 -0.04 0.08 s0 0.08 0.04 0.08 s0.04 -0.04 0.04 -0.08 s0 -0.08 -0.04 -0.08 z M197.35600000000005 39.72 l0 0.08 l0.08 -0.08 l-0.08 0 z M198.19600000000005 39.6 c0 0.12 0.04 0.12 0.08 0.2 c0.2 0 0.16 -0.12 0.24 -0.28 c-0.12 0 -0.24 0 -0.32 0.08 z M198.67600000000004 39.6 l0 0.2 c0.16 0 0.16 -0.08 0.16 -0.2 l-0.16 0 z M199.27600000000004 39.6 l0 0.12 l0.08 0 l0 -0.12 l-0.08 0 z M196.31600000000006 39.6 l0 0.08 l0.08 0.04 z M184.55600000000004 39.44 c-0.08 0.04 -0.12 0.04 -0.12 0.04 c0 0.08 0.16 0 0.16 0.2 z M188.23600000000005 39.44 c-0.08 0.04 -0.2 0.04 -0.24 0.08 c0.16 0 0.24 -0.04 0.24 -0.08 z M202.03600000000006 39.36 c0 -0.04 0 -0.04 -0.04 -0.04 l0 0.12 c0.04 0 0.04 -0.04 0.04 -0.08 z M200.95600000000005 39.12 c-0.12 0 -0.08 0.08 -0.16 0.16 c0.16 0 0.16 -0.12 0.16 -0.16 z M202.67600000000004 39.04 c0.04 0.04 0.04 0.2 0.16 0.24 c0 -0.2 0 -0.24 -0.08 -0.32 z M184.59600000000006 39.04 l0.2 0.08 l0.08 -0.08 l-0.08 -0.08 c-0.16 0 -0.16 0 -0.2 0.08 z M208.23600000000005 34.72 c-0.04 0 -0.08 0.04 -0.08 0.04 c0 0.04 0.04 0.04 0.08 0.04 s0.04 0 0.04 -0.04 c0 0 0 -0.04 -0.04 -0.04 z M192.95600000000005 32.64 l0 0.2 l0.28 0 c0 -0.08 -0.12 -0.2 -0.2 -0.2 l-0.08 0 z M208.23600000000005 32.68 c-0.04 0 -0.08 0.04 -0.08 0.08 s0.04 0.08 0.08 0.08 s0.04 -0.04 0.04 -0.08 s0 -0.08 -0.04 -0.08 z M208.35600000000005 30.64 c0 0.2 0 0.4 0.04 0.56 l0.16 0 l0 -0.56 l-0.2 0 z M207.71600000000004 30.52 c0 0.04 0.04 0.16 0.08 0.2 c0.08 0 0.2 -0.04 0.2 -0.08 c0 -0.12 -0.04 -0.16 -0.16 -0.16 c-0.04 0 -0.08 0 -0.12 0.04 z M188.47600000000006 18.28 l0 0.08 l0.08 0 l0 -0.08 l-0.08 0 z M188.47600000000006 14.239999999999998 c0 -0.04 -0.04 -0.04 -0.04 -0.04 c-0.04 0 -0.04 0 -0.04 0.04 s0 0.04 0.04 0.04 c0 0 0.04 0 0.04 -0.04 z M185.67600000000004 10.8 l0 0.08 l0.16 0 c-0.12 -0.08 -0.16 -0.04 -0.16 -0.08 z M184.63600000000005 10.32 c-0.04 0 -0.04 0.32 -0.04 0.4 l0.04 -0.16 l0.28 0 c0 -0.16 -0.16 -0.24 -0.28 -0.24 z M185.43600000000004 10.36 c0.08 0.16 0.08 0.2 0.2 0.2 c0 -0.2 -0.12 -0.2 -0.2 -0.2 z M191.47600000000006 10.36 l0 0.08 l0.28 0 l0 -0.08 l-0.28 0 z M195.47600000000006 10.36 c0.04 0.08 0.12 0.12 0.16 0.12 s0.08 -0.04 0.12 -0.04 z M197.35600000000005 10.239999999999998 c0 0.16 0.8 0.2 0.84 0.2 c-0.12 -0.28 -0.32 -0.16 -0.52 -0.28 c-0.08 0 -0.24 0.08 -0.32 0.08 z M187.11600000000004 10.32 c0 0.08 0.04 0.04 0.24 0.04 l0 -0.12 s-0.16 0.04 -0.24 0.08 z M190.51600000000005 10.32 c-0.04 0 -0.08 0 -0.08 0.04 s0.04 0.08 0.08 0.08 s0.04 -0.04 0.04 -0.08 s0 -0.04 -0.04 -0.04 z M192.51600000000005 10.32 c0 0 -0.04 0 -0.04 0.04 s0.04 0.08 0.04 0.08 s0.04 -0.04 0.04 -0.08 s-0.04 -0.04 -0.04 -0.04 z M196.07600000000005 10.36 c0 -0.04 -0.04 -0.04 -0.08 -0.04 s-0.08 0 -0.08 0.04 s0.04 0.08 0.08 0.08 s0.08 -0.04 0.08 -0.08 z M211.42400000000004 40.16 c-0.44 0 -0.44 0.04 -0.72 0.04 c-0.08 0 -0.44 -0.32 -0.56 -0.44 c0 0 0.08 -0.6 0.08 -0.72 c1.44 -0.12 2.48 -0.16 3.6 -0.28 c0.12 0 0 -0.76 0.44 -0.76 l0 -0.64 c0.04 0.04 0.08 0.04 0.08 0.04 c0.24 0 0.2 -1.12 0.52 -1.2 c0 -0.08 0.16 -1.44 0.56 -1.76 l0.2 -0.76 s1.36 -4.64 1.88 -4.64 c0.04 0 0.12 0.04 0.16 0.04 c0.2 0 0.24 -0.08 0.24 -0.16 c0 -0.36 -0.32 -0.2 -0.32 -0.48 c0 -0.72 0.72 -2.08 0.8 -2.16 c0.04 -1.64 0.64 -1.24 0.64 -2.28 l0 0.04 c0.04 0 0.36 -1 0.52 -1.12 c0 0.08 0.04 0.08 0.04 0.08 s-0.04 0 -0.04 -0.04 c0 -0.24 0.8 -1.88 0.8 -2.32 c0.2 0 0.24 -0.04 0.24 -0.12 s-0.04 -0.16 -0.04 -0.28 c0 -0.24 0.08 -0.48 0.36 -0.8 l0 0.04 c0.08 0 0.04 -0.88 0.36 -0.88 l0.16 -0.76 l0.24 -0.2 l0 -0.64 l0.32 -0.24 l0 -0.68 s0.24 -0.08 0.24 -0.16 c-0.04 0 -0.08 -0.08 -0.08 -0.12 c0 -0.52 1 -2.04 1 -3.08 l0.2 -0.16 l0 -0.64 c0 0.04 0.04 0.04 0.04 0.04 c0.56 0 -0.2 -2.32 1.88 -2.32 c0.16 0 0.88 0.44 0.88 1.04 c0.16 0.16 -0.16 0.56 0.56 1.88 c0.04 0 1 2.6 1 3.28 c0.36 0 0.12 0.8 1.04 2.72 c0.24 1.08 0.68 1.04 0.68 1.52 l0 -0.04 s0.2 1.28 0.36 1.28 l-0.04 0 c0 0.16 0.96 1.2 0.96 2.44 c0.24 1.16 0.64 0.68 0.64 1.68 l-0.04 -0.04 c0 0.08 0.64 0.92 0.64 1.44 c-0.04 0 -0.08 0 -0.08 0.04 c0 0.16 0.44 0.72 0.44 0.92 c0 0.04 -0.04 0.04 -0.04 0.08 c0 0.08 0.4 0.4 0.4 1.12 c0.16 1.4 0.84 1.48 0.84 2.36 c-0.04 0.08 -0.08 0.12 -0.08 0.16 c0 0.2 0.64 0.2 0.64 1.12 c0 2.28 1.56 2.8 1.56 4.4 c0.16 1.28 0.92 1.72 1.04 1.8 l2.6 0 c0.16 0 0.4 0.12 0.52 0.2 l0 0.72 c-0.16 0.08 -0.28 0.24 -0.92 0.24 c-0.08 0 -2 -0.08 -2.8 -0.08 c-0.36 0 -0.68 0.08 -1 0.08 c-0.04 0 -0.68 -0.08 -0.76 -0.08 c-2.16 0 -3.52 0.12 -4.36 0.12 c-0.04 0 -0.04 -0.12 -0.68 -0.12 c-0.32 0 -0.4 0 -0.56 0.08 c-0.2 0 -0.36 -0.08 -0.44 -0.2 c-0.08 0 -0.24 0.04 -0.24 0.04 l0.08 0.08 l-0.08 0.08 c-1.32 0 -1.44 0 -1.72 -0.24 l0.08 -0.68 c0 -0.08 0.28 -0.24 0.44 -0.24 l3 0 c0.04 0.04 0.32 -0.2 0.32 -0.4 c0 -0.08 -0.64 -0.92 -0.64 -1.4 c0.08 -0.04 0.08 -0.04 0.08 -0.12 c0 -0.2 -0.68 -0.72 -0.68 -1.76 c0.04 0 0.04 0 0.04 -0.04 c0 -0.08 -0.44 -0.4 -0.44 -0.72 c0 -1.44 -0.64 -1.44 -0.64 -2.52 l0 0.04 c-0.08 0 -0.44 -1 -0.8 -1 c-2.68 0 -5.52 0.08 -8.76 0.08 c0 0.16 -0.32 0.24 -0.32 0.68 c-0.6 1.32 -0.68 1.12 -0.68 1.76 c-0.48 0.32 0.04 0.56 -0.52 1.24 c-0.32 2.2 -0.76 0.96 -0.76 2.44 l0 -0.04 c-0.08 0 -0.44 1.04 -0.48 1.04 c0 0.64 0.16 0.64 0.4 0.8 l3.2 0 c0.2 0 0.6 0.04 0.6 0.52 s-0.12 0.72 -0.84 0.72 c-0.12 0 -0.28 -0.08 -0.48 -0.08 c-0.44 0 -0.6 0.08 -0.8 0.08 c-0.08 0 -0.28 -0.08 -0.32 -0.08 l-2.84 0 c-0.08 0.08 -0.16 0.08 -0.24 0.08 c-0.12 0 -0.32 -0.04 -0.48 -0.16 c0 0 0.08 -0.08 0.08 -0.16 l-0.12 0 c-0.08 0 -0.12 0 -0.12 0.08 l0.04 0.08 c-0.04 0.16 -0.08 0.16 -0.32 0.16 c0 -0.52 0 -0.4 0.12 -0.56 c-0.04 -0.16 0.04 -0.36 -0.08 -0.44 c0 0.28 -0.12 0.48 -0.36 0.64 c0 0.08 0.12 0.16 0.2 0.2 c-0.16 0 -0.6 0.2 -0.68 0.32 c-0.72 0 -0.64 -0.16 -1.08 -0.16 z M211.10400000000004 39.84 l0 0.08 l0.2 0 c-0.12 -0.08 -0.16 -0.08 -0.2 -0.08 z M211.78400000000005 39.92 c0 -0.04 -0.04 -0.04 -0.08 -0.04 s-0.08 0 -0.08 0.04 s0.04 0.08 0.08 0.08 s0.08 -0.04 0.08 -0.08 z M212.02400000000006 39.84 c-0.04 0 -0.08 0.04 -0.08 0.08 s0.04 0.08 0.08 0.08 s0.04 -0.04 0.04 -0.08 s0 -0.08 -0.04 -0.08 z M212.90400000000005 39.76 c-0.24 0 -0.56 0.08 -0.64 0.16 c0.68 0 0.48 -0.04 0.64 -0.16 z M214.22400000000005 39.8 c0 0.04 0.32 0.08 0.36 0.12 l0.08 -0.08 c-0.2 -0.04 -0.4 -0.04 -0.44 -0.04 z M217.18400000000005 39.84 c0.52 0 1.32 0.08 1.52 0.08 c-0.44 0 -0.44 -0.44 -0.48 -0.64 c0.04 0 -0.32 0.08 -0.32 0.32 c-0.08 0 -0.04 -0.24 -0.36 -0.24 c0 0.28 -0.16 0.36 -0.36 0.48 z M219.02400000000006 39.84 l0.08 0.08 c0.04 0 0.28 -0.08 0.36 -0.08 l-0.44 0 z M213.50400000000005 39.8 c-0.04 0 -0.08 0.04 -0.08 0.08 c0 0 0.04 0.04 0.08 0.04 s0.04 -0.04 0.04 -0.04 c0 -0.04 0 -0.08 -0.04 -0.08 z M216.66400000000004 39.84 c0 0 -0.08 -0.04 -0.12 -0.04 c-0.08 0 -0.08 0.04 -0.08 0.04 c0 0.04 0 0.08 0.08 0.08 c0.04 0 0.12 -0.04 0.12 -0.08 z M226.50400000000005 39.76 c0.04 0.04 0.16 0.08 0.2 0.08 s0.24 -0.04 0.32 -0.08 l0 -0.48 s-0.08 -0.04 -0.12 -0.04 c-0.36 0 -0.4 0.08 -0.4 0.24 l0 0.28 z M237.34400000000005 39.8 c0.12 0 0.16 0.04 0.36 0.04 c0.04 0 0.24 -0.04 0.36 -0.04 l-0.72 0 z M239.26400000000004 39.8 l0 0.04 l0.04 -0.04 l-0.04 0 z M227.62400000000005 39.76 l-0.08 0.04 l0.12 0.04 z M230.62400000000005 39.76 c-0.04 0 -0.08 0.04 -0.08 0.04 s0.04 0.04 0.08 0.04 s0.04 -0.04 0.04 -0.04 s0 -0.04 -0.04 -0.04 z M236.10400000000004 39.76 c0.04 0.04 0.08 0.04 0.2 0.04 l0.76 0 c-0.04 -0.04 -0.12 -0.08 -0.2 -0.12 c-0.08 0.08 -0.2 0.08 -0.24 0.08 c-0.36 0 -0.28 -0.28 -0.36 -0.28 z M210.46400000000006 39.48 c0 0.24 0 0.2 0.08 0.28 l0.52 0 l0 -0.68 c-0.56 0.28 -0.6 0.16 -0.6 0.4 z M218.90400000000005 39.56 l0 0.2 c0.08 0 0.12 -0.08 0.12 -0.08 c-0.04 -0.24 -0.16 -0.24 -0.16 -0.44 c-0.16 0 -0.24 0.08 -0.24 0.12 c0.04 0.08 0.08 0.2 0.28 0.2 z M238.46400000000006 39.68 c-0.04 0 -0.04 0.04 -0.04 0.08 s0 0.04 0.04 0.04 s0.04 0 0.04 -0.04 s0 -0.08 -0.04 -0.08 z M211.54400000000004 39.24 c0 0.32 -0.04 0.4 -0.12 0.44 c0.24 0 0.44 0 0.44 -0.24 s-0.04 -0.2 -0.32 -0.2 z M215.78400000000005 39.6 l0 0.08 l0.08 0 z M216.50400000000005 39.44 l0.08 0.04 l0 -0.12 z M219.10400000000004 39.16 c0 0.04 0 0.12 0.04 0.12 c0 0 0.16 0 0.16 -0.12 c0 -0.08 -0.08 -0.08 -0.16 -0.12 c-0.04 0.04 -0.04 0.08 -0.04 0.12 z M237.38400000000004 39.24 c0 0.04 0.08 0.04 0.12 0.04 c0 -0.2 0 -0.2 -0.08 -0.24 c0 0 -0.04 0.12 -0.04 0.2 z M239.14400000000003 38.96 c-0.2 0.04 -0.16 0.12 -0.16 0.32 l0.32 -0.2 c0 -0.04 -0.12 -0.08 -0.16 -0.12 z M236.10400000000004 39.08 c-0.04 0 -0.08 0.04 -0.08 0.04 c0 0.04 0.04 0.04 0.08 0.04 s0.04 0 0.04 -0.04 c0 0 0 -0.04 -0.04 -0.04 z M214.14400000000003 38.96 l0 0.12 l0.08 -0.12 l-0.08 0 z M214.26400000000004 38.36 c0 0.04 0.04 0.6 0.4 0.6 c-0.08 -0.04 -0.2 -0.4 -0.2 -0.6 l0.08 -0.24 l-0.08 -0.08 c-0.16 0 -0.2 0.24 -0.2 0.32 z M215.74400000000006 36.48 c-0.12 0.08 -0.28 0.32 -0.28 0.64 c0.04 0.04 0.08 0.04 0.08 0.04 c0.16 0 0.2 -0.24 0.24 -0.36 c0 -0.04 -0.04 -0.36 -0.04 -0.32 z M215.54400000000004 35.44 c0 -0.04 -0.04 -0.04 -0.04 -0.04 c-0.04 0 -0.04 0 -0.04 0.04 s0 0.04 0.04 0.04 c0 0 0.04 0 0.04 -0.04 z M216.66400000000004 32.56 c-0.04 0 -0.08 0.04 -0.08 0.04 s0.04 0.04 0.08 0.04 l0.04 -0.04 z M228.02400000000006 32 c-0.04 0 -0.04 0.04 -0.04 0.08 s0 0.08 0.04 0.08 s0.04 -0.04 0.04 -0.08 s0 -0.08 -0.04 -0.08 z M217.02400000000006 31.68 c-0.04 0 -0.04 0.04 -0.04 0.08 s0 0.08 0.04 0.08 s0.04 -0.04 0.04 -0.08 s0 -0.08 -0.04 -0.08 z M217.02400000000006 30.84 c-0.04 0 -0.04 0.04 -0.04 0.04 c0 0.04 0 0.04 0.04 0.04 s0.04 0 0.04 -0.04 c0 0 0 -0.04 -0.04 -0.04 z M218.86400000000003 29.2 c0.12 0.48 0.16 0.52 0.44 0.68 c0.48 0 1.8 -0.08 5.44 -0.08 c0.32 0 0.48 0.12 1.28 0.12 c0.4 0 0.8 -0.12 0.8 -0.56 c0 -0.2 -0.52 -0.96 -0.52 -1.36 l0.04 0 c0 -0.08 -0.44 -0.44 -0.44 -0.88 c0 -1.48 -0.76 -1.32 -0.76 -2.24 c0.04 0.04 0.04 0.08 0.04 0.08 c-0.04 0 -0.76 -1.32 -0.76 -2.08 c0 -0.52 -0.72 -1.28 -0.72 -2.16 l0.04 0 c0 -0.08 -0.44 -0.48 -0.44 -0.96 c-0.36 -0.84 -0.4 -0.76 -0.72 -0.76 c-1.16 2.76 -1.08 2.8 -1.44 3.48 c0 -0.08 -0.04 1.28 -0.56 1.48 l0 -0.08 c-0.04 0 -0.44 2.28 -0.84 2.64 c0 0.52 -0.88 1.2 -0.88 2.68 z M218.06400000000005 28.08 c-0.04 0 -0.08 0.04 -0.08 0.08 s0.04 0.08 0.08 0.08 s0.04 -0.04 0.04 -0.08 s0 -0.08 -0.04 -0.08 z M218.98400000000004 25.439999999999998 c-0.04 0 -0.08 0.04 -0.08 0.08 c0 0 0.04 0.04 0.08 0.04 l0 -0.12 z M220.66400000000004 23.08 l0 0.04 l0.04 0 z M220.50400000000005 22.44 c-0.04 0 -0.08 0.04 -0.08 0.08 l0.08 0 l0.04 0 c0 -0.04 0 -0.08 -0.04 -0.08 z M220.66400000000004 21.4 c-0.04 0 -0.08 0.04 -0.08 0.04 c0 0.04 0.04 0.08 0.08 0.08 c0 0 0.04 -0.04 0.04 -0.08 z M221.74400000000006 18.68 c0 -0.04 -0.04 -0.04 -0.04 -0.04 c-0.04 0 -0.04 0 -0.04 0.04 s0 0.08 0.04 0.08 c0 0 0.04 -0.04 0.04 -0.08 z M221.86400000000003 18.56 l-0.04 0 c0 0.04 0.04 0.04 0.04 0.04 s0.04 0 0.04 -0.04 l-0.04 0 z M226.22400000000005 15.760000000000002 c-0.04 0 -0.04 0.04 -0.04 0.08 s0 0.08 0.04 0.08 s0.04 -0.04 0.04 -0.08 s0 -0.08 -0.04 -0.08 z M225.46400000000006 10.2 c0 0 -0.04 0.04 -0.04 0.08 l0.08 0 c0 -0.04 0 -0.08 -0.04 -0.08 z M224.42400000000004 10.120000000000001 c-0.04 0 -0.04 0.04 -0.04 0.08 s0 0.08 0.04 0.08 s0.04 -0.04 0.04 -0.08 s0 -0.08 -0.04 -0.08 z M224.74400000000006 10.120000000000001 l0.16 0.08 c0.32 0 0.2 0 0.32 -0.08 l-0.12 -0.16 c-0.16 0 -0.24 0.16 -0.36 0.16 z M242.33200000000005 38.88 l0.64 0 l-0.08 0.08 c0.68 0.08 1.2 0.12 2.2 0.12 c0.52 -1.64 0.24 -4.4 0.36 -4.44 c0 -1.4 -0.12 -2.8 -0.12 -4.16 c0 -0.08 0.08 -0.16 0.08 -0.52 c0 -0.16 -0.04 -0.72 -0.08 -0.56 c0 -0.08 0.08 -0.28 0.08 -0.48 c0 -0.52 -0.04 -2.56 -0.04 -8.72 c0 -0.2 0.04 -0.28 0.04 -0.56 c0 -0.44 -0.04 -1.2 -0.04 -1.28 c0 -2 0.08 -3.6 0.08 -4.96 c0 -1.12 -0.08 -1.92 -0.44 -2.04 c-1.96 0 -2.4 0.08 -2.76 0.08 c-0.08 0 -0.88 0.16 -0.88 -0.56 c0 -0.88 0.24 -0.64 0.44 -0.92 l10.24 0 c0.08 0 0.16 -0.08 0.24 -0.08 c3.92 0 8.92 0.52 9.08 1.08 c0 -0.04 0.04 -0.04 0.04 -0.04 c0.12 0 0.28 0.52 1.2 0.52 c0.04 0 0.04 -0.04 0.08 -0.04 c0.12 0 0.12 0.4 0.88 0.68 c0 -0.04 0.04 -0.04 0.04 -0.04 c0.16 0 0.44 0.84 0.68 0.84 c-0.08 0.08 1.16 0.48 1.16 1.4 c0.08 1 0.72 0.52 0.72 2.44 c0 1.12 -0.12 1.72 -0.12 2.04 c0 0.08 0 0.12 0.04 0.16 c-0.24 0.2 -0.24 1.04 -0.48 1.08 c0 0.84 -1.12 1.32 -1.32 1.88 c0 0.48 -0.64 0.4 -1.56 1.32 c-0.04 -0.04 -0.04 -0.04 -0.08 -0.04 c-0.2 0 -0.72 0.44 -1.28 0.44 c-0.8 0.2 -0.12 0.56 -1.32 0.56 c0 1.32 2.96 0.52 2.96 1.36 c0.04 0.04 0.6 0.44 1.12 0.44 c0.2 0.48 0.84 0.44 1.32 0.88 c0.32 0.2 0.68 1 1.08 1.4 c0.32 -0.08 0.36 1.08 0.6 1.08 l-0.04 -0.04 c0 0.4 0.6 1.16 0.6 2 c0 4.48 -0.76 2.76 -0.76 4.32 c-0.32 0 -0.36 0.6 -0.6 0.84 c-0.8 0.36 0.16 0.52 -3.32 2.32 c0 0.08 -0.64 0.68 -2.28 0.68 c-0.24 0 -0.56 0.32 -1 0.32 c-8.96 0.32 -8.04 0.44 -16.6 0.44 c-0.92 0 -1.68 -0.04 -1.64 -0.16 l0 -0.76 c0.36 -0.12 0.8 -0.32 0.84 -0.4 z M245.41200000000006 39.76 c-0.04 0 -0.04 0.04 -0.04 0.04 c0 0.04 0 0.04 0.04 0.04 c0 0 0.04 0 0.04 -0.04 z M253.29200000000006 39.76 c-0.04 0 -0.08 0.04 -0.08 0.08 s0.04 0.08 0.08 0.08 l0 -0.16 z M257.77200000000005 39.76 l0.08 0.08 l0 -0.08 l-0.08 0 z M245.77200000000005 39.52 c0 0.24 0.28 0.24 0.4 0.24 c-0.08 -0.04 -0.12 -0.28 -0.16 -0.32 c-0.16 0 -0.16 0 -0.24 0.08 z M257.97200000000004 39.68 c0 0 -0.04 0.04 -0.04 0.08 l0.08 0 c0 -0.04 -0.04 -0.08 -0.04 -0.08 z M243.09200000000004 39.28 c0 0.2 0.04 0.24 0.08 0.24 s0.12 0 0.12 -0.04 c0 -0.12 -0.12 -0.12 -0.2 -0.2 z M242.65200000000004 39.36 c0.04 0.08 0.16 0.04 0.24 0.04 c-0.08 -0.04 -0.16 -0.04 -0.24 -0.04 z M245.41200000000006 39.36 c-0.04 0 -0.04 0.04 -0.04 0.04 l0.08 0 z M254.25200000000007 39.36 c0.04 0.04 0.04 0.08 0.08 0.08 l0.04 -0.04 l0 -0.12 z M259.4920000000001 39.36 c-0.04 0 -0.04 0.04 -0.04 0.04 l0.08 0 c0 0.04 0 -0.04 -0.04 -0.04 z M243.49200000000005 39.36 c0 -0.04 -0.04 -0.04 -0.04 -0.04 c-0.04 0 -0.04 0 -0.04 0.04 s0 0.04 0.04 0.04 c0 0 0.04 0 0.04 -0.04 z M243.73200000000006 39.28 c-0.04 0 -0.08 0.04 -0.08 0.08 s0.04 0.04 0.08 0.04 s0.04 0 0.04 -0.04 s0 -0.08 -0.04 -0.08 z M242.09200000000004 39.2 c-0.04 0 -0.08 0.04 -0.08 0.08 s0.04 0.08 0.08 0.08 c0 0 0.04 -0.04 0.04 -0.08 s-0.04 -0.08 -0.04 -0.08 z M245.61200000000005 39.28 c0 -0.04 -0.04 -0.04 -0.04 -0.04 c-0.04 0 -0.04 0 -0.04 0.04 s0 0.08 0.04 0.08 c0 0 0.04 -0.04 0.04 -0.08 z M254.01200000000006 38.88 c-0.04 0.08 0.04 0.12 0.16 0.16 c0.2 0 0.56 0.04 0.56 -0.24 l2.48 0 l-0.08 0 c0 -0.04 0.84 0 2.12 -0.56 c1 -0.88 0.96 -0.84 1.24 -1.4 l-0.08 0 c0 -0.04 0.44 -0.32 0.44 -1 c0 -1.96 0.52 -2.4 0.52 -3.84 c0 -2.84 -0.48 -2.6 -0.48 -3.4 c0 -0.08 0.04 -0.16 0.04 -0.24 c0 -0.16 -0.04 -0.4 -0.32 -0.68 c-0.04 0 -0.04 0.04 -0.08 0.04 c-0.24 0 -0.08 -1.12 -0.76 -1.12 c-0.08 -0.08 -0.08 -0.32 -0.84 -0.72 l0 0.04 c-0.16 0 -1.36 -0.76 -2.32 -0.76 c-1.12 0 -2.56 -0.08 -4.96 -0.08 c-0.16 0.08 -0.2 0.16 -0.2 0.2 c0 0 0.04 0 0.04 0.04 l-0.04 0 l-0.04 -0.04 c-0.08 0 -0.2 0.36 -0.2 3.16 c0 0.88 0.04 3.24 0.04 5.8 c0 0.68 -0.04 1.48 -0.04 2.2 c0 1.08 0.08 2.04 0.52 2.36 l0.48 0 l0.08 0.16 l0.84 0 l0.08 -0.08 l0.8 0 z M261.9320000000001 35.68 c-0.04 0 -0.08 0.04 -0.08 0.08 c0 0 0.04 0.04 0.08 0.04 l0 -0.12 z M251.25200000000007 23.76 c0 0.16 0.24 0.28 0.24 0.32 l3.16 0 c0.2 -0.16 1.24 0.08 1.56 -0.4 c1.48 0 2 -0.4 2.28 -0.76 l0 0.04 c0.08 0 0.48 -0.6 0.72 -0.56 c-0.04 -0.04 -0.08 -0.12 -0.08 -0.16 c0 -0.28 0.76 -0.4 0.76 -1.4 c0.12 -2.44 0.32 0.84 0.32 -4.76 c0 -0.4 0 -0.68 -0.08 -1.08 c0 0 -0.08 -1.4 -0.64 -1.88 l0 0.04 c-0.04 0 -0.28 -0.88 -1.08 -1.12 c-0.08 0 -0.64 -0.68 -2.04 -0.68 l-4.96 0 c-0.24 0.08 -0.32 1.12 -0.32 1.44 c0.04 0.08 0.12 0.72 0.12 1.44 c0 0.08 0 0.16 -0.08 0.24 l0 2.84 c0 0.44 0.08 0.64 0.08 1.52 c0 0.6 0 1.24 -0.08 1.24 c0 1.32 0.12 2.56 0.12 3.68 z M245.73200000000006 21.72 c-0.08 0 -0.08 0.04 -0.12 0.04 c0 0 -0.04 0 0.12 -0.04 z M264.21200000000005 21.64 c0 -0.04 -0.04 -0.04 -0.04 -0.04 c-0.04 0 -0.04 0 -0.04 0.04 s0 0.08 0.04 0.08 c0 0 0.04 -0.04 0.04 -0.08 z M243.73200000000006 11 c0 0.12 0 0.12 0.08 0.2 c0.16 0 0.2 0 0.32 -0.08 l-0.2 -0.24 c-0.16 0 -0.24 0.04 -0.24 0.08 s0.04 0.04 0.04 0.04 z M241.81200000000004 10.440000000000001 c-0.28 0 -0.2 0.2 -0.2 0.44 c0.16 -0.2 0.2 -0.16 0.2 -0.44 z M243.65200000000004 10.879999999999999 c0 -0.04 0 -0.04 -0.04 -0.04 l0 0.12 c0.04 0 0.04 -0.04 0.04 -0.08 z M242.49200000000005 10.600000000000001 c0 0.08 0.16 0.2 0.24 0.2 c0.04 0 0.24 0 0.32 -0.08 l-0.04 0 s0.04 0 0.04 -0.04 s-0.04 -0.12 -0.16 -0.12 c-0.08 0 -0.2 0.04 -0.4 0.04 z M244.13200000000006 10.559999999999999 c-0.12 0 -0.24 0.04 -0.24 0.16 c0.04 -0.04 0.2 -0.12 0.24 -0.16 z M243.49200000000005 10.559999999999999 c-0.12 0 -0.2 0 -0.2 0.08 c0 0.04 0 0.04 0.04 0.04 c0.12 0 0.16 -0.08 0.16 -0.12 z M256.81200000000007 10.559999999999999 l0 0.04 l0.12 -0.04 l-0.12 0 z M274.00000000000006 38.84 c-0.36 0 -0.56 0.08 -0.8 0.12 c-0.36 0 -0.28 0 -0.32 -0.04 l-0.12 0.04 c0 0.12 0.04 0.12 0.12 0.16 c0 -0.04 -0.12 0.08 -0.2 0.24 l0.04 0 c0 0.04 -1.28 1.04 -1.48 1.04 c-0.92 0 -0.92 -1.08 -0.92 -1.24 c0 -0.08 0 -0.08 0.04 -0.2 c0 -4.48 -0.2 -3.8 -0.2 -6.48 c0 0 0.04 -0.04 0.04 -0.08 c0 -0.12 -0.08 -0.32 -0.08 -0.52 c0 -0.36 0.16 -0.6 1.2 -0.6 c0.12 0 0.28 0.12 0.64 0.76 c0 0.2 0.72 0.8 0.8 1.16 c-0.04 0.04 -0.08 0.08 -0.08 0.12 c0 0.16 0.6 0.4 0.6 0.64 c0 0.04 -0.04 0.08 -0.04 0.08 c0 0.24 0.4 0.44 0.4 0.56 c0.48 0.88 0.52 0.84 1.16 1.48 c0.2 0 1.68 2.64 2.8 2.64 c1.44 0.12 1.72 0.64 3.24 0.64 c0.84 0 0.72 -0.04 1 -0.2 c-0.08 0.08 -0.04 0.08 -0.08 0.08 c0 0 0.28 -0.4 1.6 -0.4 c0.6 0 1.76 -1.12 2 -1.28 c0.08 -0.08 0.48 -0.24 0.48 -0.32 c0 -0.24 0.84 -1.4 0.96 -1.52 c-0.04 -0.08 -0.04 -0.16 -0.04 -0.2 c0 -0.6 0.64 0.32 0.64 -3.4 c-0.04 -0.12 -0.16 -1.4 -0.44 -1.64 c-0.12 0 -0.12 -0.92 -1.08 -1.56 c0 -0.04 0.04 -0.24 0.04 -0.32 c-1.56 -0.08 -0.76 -0.88 -1.8 -0.88 c-1.96 0 -0.4 -0.6 -2.52 -0.6 c-0.2 -0.2 -1.96 -0.16 -2.36 -0.4 c-0.08 0 -0.36 0.08 -0.44 0.08 c-0.48 0 -0.08 -0.4 -1.16 -0.4 c-3.64 -0.2 -1.68 -0.88 -2.92 -0.88 l0 -0.08 c0.12 0 0.28 -0.04 0.4 0.08 c0 0 0.2 -0.08 0.2 -0.12 c0 0 -0.08 -0.08 -0.08 -0.12 l-1.24 0 c-0.4 -0.36 -0.36 -0.6 -0.68 -0.68 c0 -0.04 -0.44 0.04 -1.12 -0.88 c0 -0.28 -0.88 -1.32 -1.08 -1.48 c-0.36 -1.88 -0.8 -3 -0.8 -4.44 c0.08 -0.44 0 -1 0.16 -1.28 l0 0.04 c0.04 0 0.2 -1.36 0.32 -1.28 c-0.04 0 -0.08 -0.04 -0.08 -0.08 c0 -0.32 0.84 -1.2 0.84 -1.52 c-0.04 -0.04 -0.04 -0.08 -0.04 -0.08 c0 -0.28 0.64 -0.56 0.64 -0.68 s0.52 -0.96 0.76 -1.12 c-0.04 0.04 -0.04 0.08 -0.04 0.08 c-0.04 0 1.96 -1.32 2 -1.36 c2.44 -0.4 0.32 -1.08 3.04 -1.08 l3.92 0 c0.08 0 0.92 0 1.32 0.32 c1.64 0.08 1.36 1.04 2.08 1.04 c1.32 0 0.96 -0.08 1.36 -0.48 c-0.16 -0.2 1.08 -0.04 1.2 -0.56 l0.52 0 c0.08 0 0.4 0.32 0.44 0.4 c0.12 4.96 0.36 4.84 0.36 7.44 c0 0.2 -0.36 0.32 -0.52 0.64 l-0.56 0 l0 -0.16 c-0.12 0 -0.96 -0.56 -0.96 -1 l0 0.04 c-0.04 0 -0.32 -1 -0.76 -1.16 l0.04 0 c0 -0.12 -0.52 -0.52 -0.52 -0.8 c-0.6 -0.88 -0.52 -0.84 -1 -1.32 l0.04 0 c0 -0.04 -1 -0.64 -1 -0.92 c0 -0.6 -1.48 -1.32 -1.8 -1.64 c0.12 -0.24 -1.04 -0.56 -2.2 -0.56 c-0.04 0 -0.08 0.04 -0.12 0.04 c-0.4 0 -0.24 -0.68 -0.36 -0.68 c-0.08 0.08 -0.12 0.08 -0.16 0.16 c-0.04 0 -0.2 -0.04 -0.32 -0.08 c-0.24 0.88 -0.64 0.4 -0.76 0.64 c-0.24 -0.12 -0.08 -0.24 -0.24 -0.28 c-0.84 0.4 -0.6 0.36 -2.44 1.28 c-1.2 2.36 -0.56 -0.56 -1.88 3.04 l0 1.76 l0 -0.04 c0.04 0 0.2 1.56 0.56 1.76 c0.08 0.12 0.6 0.52 0.76 0.84 c0.28 0 0.64 1.04 1.8 1.04 c0.48 0.52 2.36 0.4 4.28 0.88 c0.56 0.16 3.48 0.16 4.16 0.96 l-0.04 0 c0 0.08 0.96 0.16 1.12 0.28 c0 -0.08 1.92 1.12 1.92 1.36 c0 0.04 0 0.04 -0.04 0.04 c0.68 0 1.36 1.52 1.64 1.72 c0.2 1.44 0.76 1 0.76 2.12 c0.48 1.52 0.4 1.88 0.4 3.76 c-0.12 0.12 -0.2 1.52 -0.4 1.6 c0 2.04 -1.04 1.92 -1.04 2.8 l-0.52 0.48 c0 0.08 -0.04 0.24 -0.04 0.24 c-0.8 0.72 -0.52 0.84 -0.88 1 c-0.12 0 -0.32 0.6 -1 0.8 c-0.76 1.16 -1.08 0.24 -1.88 1.4 c-3.6 0 0.08 0.88 -3.92 0.88 c-4.56 0 -2.96 -0.12 -4.44 -0.48 c-0.04 0 -0.04 0.04 -0.08 0.04 c-0.24 0 -0.6 -0.32 -0.92 -0.32 c0 -0.04 -0.6 -0.12 -0.6 -0.2 c0 0.04 0.04 0.04 0.04 0.04 c0 -0.04 -0.56 -0.84 -1 -0.84 c-0.08 0 -0.16 0.04 -0.24 0.08 z M281.6000000000001 40.28 c-0.04 0 -0.04 0.04 -0.04 0.08 c0 0 0 0.04 0.04 0.04 s0.04 -0.04 0.04 -0.04 c0 -0.04 0 -0.08 -0.04 -0.08 z M278.6000000000001 40.2 c-0.04 0 -0.04 0.04 -0.04 0.04 c0 0.04 0 0.04 0.04 0.04 s0.04 0 0.04 -0.04 c0 0 0 -0.04 -0.04 -0.04 z M282.40000000000003 40.2 c-0.04 0 -0.08 0.04 -0.08 0.08 s0.04 0.08 0.08 0.08 s0.04 -0.04 0.04 -0.08 s0 -0.08 -0.04 -0.08 z M281.52000000000004 40.12 c-0.04 0 -0.08 0.04 -0.08 0.08 s0.04 0.08 0.08 0.08 s0.04 -0.04 0.04 -0.08 s0 -0.08 -0.04 -0.08 z M282.40000000000003 40.04 c-0.08 0 -0.12 0 -0.12 0.04 l0.04 0.04 l0.08 0 l0 -0.08 z M279.4800000000001 40.04 c-0.04 0 -0.04 0 -0.04 0.04 c0 0 0 0.04 0.04 0.04 s0.04 -0.04 0.04 -0.04 c0 -0.04 0 -0.04 -0.04 -0.04 z M282.40000000000003 39.76 l0 0.2 c0.08 -0.04 0.16 -0.12 0.2 -0.2 l-0.2 0 z M283.4800000000001 39.64 c-0.36 0 -0.36 0.12 -0.36 0.24 c0.04 0 0.12 -0.04 0.2 -0.08 c0.04 0 0.16 0.04 0.24 0.08 l0.16 -0.08 s0 -0.16 -0.24 -0.16 z M278.7200000000001 39.68 l0 0.08 l0.16 0 l0 -0.08 l-0.16 0 z M280.7200000000001 39.68 c-0.04 0 -0.04 0.04 -0.04 0.08 c0 0 0 0.04 0.04 0.04 s0.04 -0.04 0.04 -0.04 c0 -0.04 0 -0.08 -0.04 -0.08 z M281.8400000000001 39.68 c-0.04 0 -0.08 0.04 -0.08 0.08 c0 0 0.04 0.04 0.08 0.04 s0.04 -0.04 0.04 -0.04 c0 -0.04 0 -0.08 -0.04 -0.08 z M278.1600000000001 39.44 c-0.04 0 -0.08 0 -0.08 0.04 l0.08 0 l0.04 0 c0 -0.04 0 -0.04 -0.04 -0.04 z M276.9200000000001 39.32 c-0.04 0 -0.08 0 -0.12 0.04 z M276.80000000000007 39.16 c-0.04 0 -0.08 0.04 -0.08 0.08 s0.04 0.08 0.08 0.08 s0.04 -0.04 0.04 -0.08 s0 -0.08 -0.04 -0.08 z M276.9200000000001 39.12 c-0.04 0 -0.04 0.04 -0.04 0.08 c0 0 0 0.04 0.04 0.04 s0.04 -0.04 0.04 -0.04 c0 -0.04 0 -0.08 -0.04 -0.08 z M271.20000000000005 39.04 c-0.04 0 -0.08 0.04 -0.08 0.08 c0 0 0.04 0.04 0.08 0.04 l0.04 -0.04 c0 -0.04 -0.04 -0.08 -0.04 -0.08 z M276.80000000000007 39.04 c-0.04 0 -0.08 0.04 -0.08 0.08 c0 0 0.04 0.04 0.08 0.04 s0.04 -0.04 0.04 -0.04 c0 -0.04 0 -0.08 -0.04 -0.08 z M270.64000000000004 38.92 c-0.04 0 -0.08 0.04 -0.08 0.04 c0 0.04 0.04 0.08 0.08 0.08 c0 0 0.04 -0.04 0.04 -0.08 z M277.12000000000006 38.96 l-0.08 0 c0 0.04 0 0.08 0.04 0.08 c0 0 0.04 -0.04 0.04 -0.08 z M284.96000000000004 38.92 c-0.04 0 -0.04 0.04 -0.04 0.04 l0.08 0 c0 0.04 0 -0.04 -0.04 -0.04 z M270.64000000000004 38.24 l0 -0.16 l0 0.16 z M286.80000000000007 38.16 c-0.04 0 -0.08 0.04 -0.08 0.08 l0.12 0 c0 -0.04 -0.04 -0.08 -0.04 -0.08 z M287.36000000000007 37.68 l0 0.08 l0.04 0 z M287.24000000000007 37.56 c-0.04 0 -0.08 0.04 -0.08 0.08 c0 0 0.04 0.04 0.08 0.04 s0.04 -0.04 0.04 -0.04 c0 -0.04 0 -0.08 -0.04 -0.08 z M287.4800000000001 37.6 l0.08 -0.04 z M287.7200000000001 37.36 l0 0 l-0.08 0.08 c0.04 -0.04 0.04 -0.08 0.08 -0.08 z M270.76000000000005 37.32 c-0.04 0 -0.08 0 -0.08 0.04 c0 0 0.08 0 0.08 -0.04 l0 0 z M270.64000000000004 36.92 l0 0.24 l0.04 0 c0 -0.04 0 -0.2 -0.04 -0.24 z M288.96000000000004 36.04 c-0.04 0 -0.04 0.04 -0.04 0.04 s0 0.04 0.04 0.04 s0.04 -0.04 0.04 -0.04 s0 -0.04 -0.04 -0.04 z M287.7200000000001 32.76 l0.08 0.04 l0.08 -0.04 l-0.16 0 z M270.64000000000004 32.12 l-0.08 0 c0 0.04 0 0.08 0.04 0.08 c0 0 0.04 -0.04 0.04 -0.08 z M290.56000000000006 31.439999999999998 l0 -0.04 c-0.04 0 -0.04 0 -0.04 0.04 s0 0.08 0.04 0.08 l0 -0.08 z M273.76000000000005 24.68 c-0.04 0 -0.08 0.04 -0.08 0.08 s0.04 0.08 0.08 0.08 s0.04 -0.04 0.04 -0.08 s0 -0.08 -0.04 -0.08 z M272.12000000000006 22.96 c-0.04 0 -0.08 0.04 -0.08 0.08 c0 0 0.04 0.04 0.08 0.04 l0.04 -0.04 c0 -0.04 -0.04 -0.08 -0.04 -0.08 z M284.96000000000004 22.56 c-0.04 0 -0.04 0.04 -0.04 0.08 c0 0 0 0.04 0.04 0.04 s0.04 -0.04 0.04 -0.04 c0 -0.04 0 -0.08 -0.04 -0.08 z M271.64000000000004 22.4 l0 0.08 l0.08 -0.08 l-0.08 0 z M275.44000000000005 22.04 c0 0 -0.04 0 -0.04 0.04 l0.08 0 c0 -0.04 -0.04 -0.04 -0.04 -0.04 z M279.40000000000003 21.52 c-0.08 0 -0.28 0.08 -0.28 0.12 s0.04 0.04 0.04 0.04 c0.08 0 0.16 -0.08 0.24 -0.16 z M270.88000000000005 20.36 c-0.04 0 -0.08 -0.04 -0.08 0.2 c0 0.04 0.04 0.12 0.04 0.12 c0.04 0 0.08 -0.08 0.08 -0.12 c0 -0.08 -0.04 -0.16 -0.04 -0.2 z M270.76000000000005 19.96 c-0.04 0 -0.08 0.04 -0.08 0.08 s0.04 0.08 0.08 0.08 l0 -0.16 z M287.88000000000005 12.920000000000002 c-0.04 0 -0.08 0.04 -0.08 0.08 c0 0 0.04 0.04 0.08 0.04 s0.04 -0.04 0.04 -0.04 c0 -0.04 0 -0.08 -0.04 -0.08 z M288.44000000000005 12.920000000000002 c-0.04 0 -0.04 0.04 -0.04 0.08 c0 0 0 0.04 0.04 0.04 s0.04 -0.04 0.04 -0.04 c0 -0.04 0 -0.08 -0.04 -0.08 z M288.6000000000001 12.920000000000002 c-0.04 0 -0.08 0.04 -0.08 0.08 c0 0 0.04 0.04 0.08 0.04 l0.04 -0.04 c0 -0.04 -0.04 -0.08 -0.04 -0.08 z M279.64000000000004 12.04 l0 -0.44 c0.04 -0.04 0.12 -0.08 0.16 -0.12 l0.08 0.08 c0 0.12 -0.16 0.32 -0.16 0.56 z M288.44000000000005 11.879999999999999 c-0.04 0 -0.04 0.04 -0.04 0.08 c0 0 0 0.04 0.04 0.04 s0.04 -0.04 0.04 -0.04 c0 -0.04 0 -0.08 -0.04 -0.08 z M275.32000000000005 11.68 c-0.2 0.04 -0.2 0.2 -0.2 0.2 c0.04 -0.04 0.2 -0.12 0.2 -0.16 l0 -0.04 z M274.36000000000007 11.48 c0 0.08 0.12 0.12 0.2 0.12 c-0.04 -0.12 -0.2 -0.12 -0.24 -0.12 l0.04 0 z M288.2800000000001 11.559999999999999 c0.04 0.04 0.08 0.04 0.12 0.04 c0.16 0 0.2 -0.12 0.2 -0.24 z M275.00000000000006 11.239999999999998 c-0.12 0 -0.08 0.12 -0.08 0.24 l0.08 0 l0 -0.24 z M282.9200000000001 10.879999999999999 c-0.12 0.2 -0.08 0.36 -0.08 0.52 c0.16 -0.04 0.2 -0.24 0.2 -0.44 c-0.04 -0.04 -0.04 -0.08 -0.12 -0.08 z M275.00000000000006 11.04 c-0.04 0 -0.08 0 -0.08 0.04 l0.08 0 l0.04 0 c0 -0.04 0 -0.04 -0.04 -0.04 z M287.88000000000005 10.96 c0 -0.04 -0.04 -0.04 -0.12 -0.04 c-0.04 0 -0.08 0 -0.08 0.04 s0.04 0.08 0.08 0.08 c0.08 0 0.12 -0.04 0.12 -0.08 z M288.0400000000001 10.84 c-0.04 0 -0.08 0.04 -0.08 0.04 l0.04 0 l0.04 0 l0 -0.04 z M284.08000000000004 10.84 l-0.04 -0.04 z M281.6000000000001 10.8 c0 -0.04 -0.04 -0.04 -0.04 -0.04 s-0.04 0 -0.04 0.04 s0.04 0.04 0.04 0.04 s0.04 0 0.04 -0.04 z M287.0400000000001 10.8 c0 -0.04 -0.04 -0.04 -0.04 -0.04 c-0.04 0 -0.04 0 -0.04 0.04 s0 0.04 0.04 0.04 c0 0 0.04 0 0.04 -0.04 z M287.56000000000006 10.719999999999999 c-0.04 0 -0.08 0.04 -0.08 0.08 c0 0 0.04 0.04 0.08 0.04 s0.04 -0.04 0.04 -0.04 c0 -0.04 0 -0.08 -0.04 -0.08 z M288.44000000000005 10.64 l0 0.16 l0.08 -0.08 z M276.2800000000001 10.32 c0 0.12 0.08 0.28 0.08 0.4 l0.08 -0.2 s-0.04 -0.16 -0.08 -0.28 z M283.32000000000005 10.48 c-0.04 0 -0.08 0.04 -0.08 0.04 s0.04 0.04 0.08 0.04 s0.04 -0.04 0.04 -0.04 s0 -0.04 -0.04 -0.04 z M287.68000000000006 10.239999999999998 c-0.12 0.04 -0.16 0.16 -0.2 0.28 c0.24 0 0.2 -0.12 0.2 -0.28 z M288.44000000000005 10.48 l0 0.04 l0.08 0 z M288.44000000000005 10.239999999999998 c-0.04 0 -0.04 0.04 -0.04 0.04 c0 0.04 0 0.04 0.04 0.04 s0.04 0 0.04 -0.04 c0 0 0 -0.04 -0.04 -0.04 z M280.08000000000004 10.079999999999998 c-0.04 0.12 0.2 0.16 0.2 0.16 c0.08 -0.12 0.48 0.04 0.44 -0.16 l-0.64 0 z M282.6000000000001 10.16 l-0.08 0 c0 0.04 0 0.08 0.04 0.08 c0 0 0.04 -0.04 0.04 -0.08 z M277.8400000000001 10 l0 0.08 l0.16 0 l0 -0.08 l-0.16 0 z M278.6000000000001 9.920000000000002 c-0.12 0 -0.28 0.12 -0.32 0.16 l0.32 0 l0 -0.16 z M281.6000000000001 10 l0 0.08 l0.24 0 z"></path></g>
			</g>
		</svg>
	